<?xml version="1.0" encoding="utf-8"?>
<!-- Generator: Adobe Illustrator 24.1.1, SVG Export Plug-In . SVG Version: 6.00 Build 0)  -->
<svg version="1.1" id="Layer_1" xmlns="http://www.w3.org/2000/svg" xmlns:xlink="http://www.w3.org/1999/xlink" x="0px" y="0px"
	 viewBox="0 0 47.3 41.2" style="enable-background:new 0 0 47.3 41.2;" xml:space="preserve">
<style type="text/css">
	.st0{fill:#D2D0CF;}
	.st1{fill:#F0EFEF;}
    #level100{display:none;}
    #level90{display:none;}
    #level80{display:none;}
    #level70{display:none;}
    #level60{display:none;}
    #level50{display:none;}
    #level40{display:none;}
    #level30{display:none;}
    #level20{display:none;}
    #level10{display:none;}
</style>
<g id="level100">
	<path class="st0" d="M23.1,13.5c-8.9,0-16.9-0.8-22.6-2v2.3v2.7v2.7v2.7v2.7v2.7V30v2.7v2.7v0.4v2.6c0,1.3,10.4,2.3,23.1,2.3
		s23.1-1,23.1-2.3v-2.6v-3.1V30v-2.7v-2.7v-2.7v-2.7v-2.7v-2.7v-2.6C41,12.6,32.5,13.5,23.1,13.5z"/>
</g>
<g id="level90">
	<path class="st0" d="M23.1,16.2c-8.9,0-16.9-0.8-22.6-2v2.3v2.7v2.7v2.7v2.7V30v2.7v2.7v0.4v2.6c0,1.3,10.4,2.3,23.1,2.3
		s23.1-1,23.1-2.3v-2.6v-3.1V30v-2.7v-2.7v-2.7v-2.7l0.1-2.7v-2.6C41.1,15.3,32.6,16.2,23.1,16.2z"/>
</g>
<g id="level80">
	<path class="st0" d="M23.1,18.8c-8.9,0-16.9-0.8-22.6-2v2.4v2.7v2.7v2.7V30v2.7v2.7v0.4v2.6c0,1.3,10.4,2.3,23.1,2.3
		s23.1-1,23.1-2.3v-2.6v-3.1V30v-2.7v-2.7v-2.7l0.1-2.7v-2.7C41.1,17.9,32.6,18.8,23.1,18.8z"/>
</g>
<g id="level70">
	<path class="st0" d="M23.1,21.4c-8.9,0-16.9-0.8-22.6-2v2.5v2.7v2.7V30v2.7v2.7v0.4v2.6c0,1.3,10.4,2.3,23.1,2.3s23.1-1,23.1-2.3
		v-2.6v-3.1V30v-2.7v-2.7v-2.7v-2.7h-0.2C40.8,20.5,32.5,21.4,23.1,21.4z"/>
</g>
<g id="level60">
	<path class="st0" d="M23.1,24.1c-8.9,0-16.9-0.8-22.6-2v2.5v2.7V30v2.7v2.7v0.4v2.6c0,1.3,10.4,2.3,23.1,2.3s23.1-1,23.1-2.3v-2.6
		v-3.1V30v-2.7v-2.7v-2.7h-0.2C40.7,23.2,32.4,24.1,23.1,24.1z"/>
</g>
<g id="level50">
	<path class="st0" d="M23.1,26.8c-8.9,0-16.9-0.8-22.6-2v2.5V30v2.7v2.7v0.4v2.6c0,1.3,10.4,2.3,23.1,2.3s23.1-1,23.1-2.3v-2.6v-3.1
		V30v-2.7v-2.7l0,0C40.9,26,32.5,26.8,23.1,26.8z"/>
</g>
<g id="level40">
	<path class="st0" d="M23.1,29.6c-8.9,0-16.9-0.8-22.6-2V30v2.7v2.7v0.4v2.6c0,1.3,10.4,2.3,23.1,2.3s23.1-1,23.1-2.3v-2.6v-3.1V30
		v-2.7C41,28.7,32.5,29.6,23.1,29.6z"/>
</g>
<g id="level30">
	<path class="st0" d="M23.1,32.3c-8.9,0-16.9-0.8-22.6-2v2.4v2.7v0.4v2.6c0,1.3,10.4,2.3,23.1,2.3s23.1-1,23.1-2.3v-2.6v-3.1v-2.6
		C41,31.4,32.5,32.3,23.1,32.3z"/>
</g>
<g id="level20">
	<path class="st0" d="M23.1,34.8c-8.9,0-16.9-0.8-22.6-2v2.6v0.4v2.6c0,1.3,10.4,2.3,23.1,2.3s23.1-1,23.1-2.3v-2.6v-3.1h-0.6
		C40.4,34,32.2,34.8,23.1,34.8z"/>
</g>
<g id="level10">
	<path class="st0" d="M23.1,37.4c-8.9,0-16.9-0.8-22.6-2l0,0v3c0,1.3,10.4,2.3,23.1,2.3s23.1-1,23.1-2.3v-3h-1
		C40.1,36.6,32,37.4,23.1,37.4z"/>
</g>
<g id="frame">
	<path class="st1" d="M47.3,7.7c0-0.5-0.5-0.9-0.8-1C44.7,5.1,38.1,0,23.6,0C9.2,0,2.5,5.1,0.8,6.7C0.5,6.8,0,7.2,0,7.7l0,0l0,0
		v30.4c0,3.1,22.7,3.1,23.6,3.1s23.6,0,23.6-3.1L47.3,7.7L47.3,7.7L47.3,7.7z M1.3,7.6l0.1-0.1C3,6,9.4,1,23.6,1s20.6,5,22.2,6.5
		L46,7.6c0.1,0.1,0.2,0.1,0.2,0.1s0,0-0.1,0c0,0-0.1,0.1-0.2,0.1c0,0-0.1,0-0.1,0.1C45.8,8,45.7,8,45.6,8c-0.1,0-0.1,0-0.2,0.1
		c-0.1,0-0.3,0.1-0.4,0.1c-0.1,0-0.1,0-0.2,0.1c-0.2,0-0.4,0.1-0.6,0.1c-0.1,0-0.1,0-0.2,0c-0.2,0-0.5,0.1-0.7,0.1
		c-0.1,0-0.1,0-0.2,0c-0.3,0-0.6,0.1-0.9,0.1c-0.1,0-0.1,0-0.2,0c-0.3,0-0.7,0.1-1,0.1c-0.1,0-0.1,0-0.2,0C40.4,9,40,9,39.5,9.1
		c0,0-0.1,0-0.2,0c-0.4,0-0.9,0.1-1.4,0.1h-0.1c-0.5,0-1,0.1-1.6,0.1l0,0c-3.5,0.3-7.7,0.4-12.7,0.4C10.4,9.8,2.1,8.6,1.1,7.7
		C1.1,7.7,1.2,7.6,1.3,7.6z M23.6,40.2c-13.6,0-22-1.3-22.6-2.1V8.7C1.3,8.9,1.7,9,2.1,9.1l0,0c0.2,0.1,0.4,0.1,0.7,0.2
		c0,0,0,0,0.1,0c0.2,0.1,0.5,0.1,0.7,0.2l0,0c6.4,1.3,19.3,1.3,20.1,1.3c0.7,0,13.6,0,20.1-1.3c0,0,0,0,0.1,0c0.2,0,0.5-0.1,0.7-0.2
		c0,0,0,0,0.1,0c0.2-0.1,0.4-0.1,0.6-0.2l0,0c0.3-0.1,0.7-0.2,1-0.4V38C45.7,38.9,37.3,40.2,23.6,40.2z"/>
</g>
</svg>
