<?xml version="1.0" encoding="utf-8"?>
<!-- Generator: Adobe Illustrator 24.1.1, SVG Export Plug-In . SVG Version: 6.00 Build 0)  -->
<svg version="1.1" id="Layer_1" xmlns="http://www.w3.org/2000/svg" xmlns:xlink="http://www.w3.org/1999/xlink" x="0px" y="0px"
	 viewBox="0 0 51 41.2" style="enable-background:new 0 0 51 41.2;" xml:space="preserve">
<style type="text/css">
	.st0{fill:#D2D0CF;}
	.st1{fill:#F0EFEF;}
    #level100{display:none;}
    #level90{display:none;}
    #level80{display:none;}
    #level70{display:none;}
    #level60{display:none;}
    #level50{display:none;}
    #level40{display:none;}
    #level30{display:none;}
    #level20{display:none;}
    #level10{display:none;}
</style>
<g id="level10">
	<rect x="2" y="34.4" class="st0" width="47" height="3.3"/>
</g>
<g id="level20">
	<rect x="2" y="31.1" class="st0" width="47" height="6.6"/>
</g>
<g id="level30">
	<rect x="2" y="27.8" class="st0" width="47" height="9.8"/>
</g>
<g id="level40">
	<rect x="2" y="24.5" class="st0" width="47" height="13.1"/>
</g>
<g id="level50">
	<rect x="2" y="21.3" class="st0" width="47" height="16.4"/>
</g>
<g id="level60">
	<rect x="2" y="18" class="st0" width="47" height="19.7"/>
</g>
<g id="level70">
	<rect x="2" y="14.7" class="st0" width="47" height="23"/>
</g>
<g id="level80">
	<rect x="2" y="11.4" class="st0" width="47" height="26.3"/>
</g>
<g id="level90">
	<rect x="2.6" y="8.1" class="st0" width="45.9" height="29.5"/>
</g>
<g id="level100">
	<rect x="2.6" y="4.9" class="st0" width="45.9" height="32.8"/>
</g>
<g id="frame">
	<path class="st1" d="M50.4,3.5V0.5H0.6v3.1h0.9v34.1H0.6v3.1h49.8v-3.1h-0.9V3.5H50.4z M48.4,37.7H2.6V3.5h45.9V37.7z"/>
</g>
</svg>
