<?xml version="1.0" encoding="utf-8"?>
<!-- Generator: Adobe Illustrator 24.1.1, SVG Export Plug-In . SVG Version: 6.00 Build 0)  -->
<svg version="1.1" id="Layer_1" xmlns="http://www.w3.org/2000/svg" xmlns:xlink="http://www.w3.org/1999/xlink" x="0px" y="0px"
	 viewBox="0 0 51 41.2" style="enable-background:new 0 0 51 41.2;" xml:space="preserve">
<style type="text/css">
	.st0{fill:#D2D0CF;}
	.st1{fill:#F0EFEF;}
    #level100{display:none;}
    #level90{display:none;}
    #level80{display:none;}
    #level70{display:none;}
    #level60{display:none;}
    #level50{display:none;}
    #level40{display:none;}
    #level30{display:none;}
    #level20{display:none;}
    #level10{display:none;}
</style>
<g id="level10">
	<path class="st0" d="M1.6,36.7c0.5,2.5,1,4,1.7,4h44.4c0.6,0,1.2-1.5,1.7-4H1.6z"/>
</g>
<g id="level20">
	<path class="st0" d="M1.1,33.3c0.5,4.5,1.3,7.5,2.2,7.5h44.4c0.9,0,1.7-2.9,2.2-7.5H1.1z"/>
</g>
<g id="level30">
	<path class="st0" d="M0.8,29.8c0.4,6.5,1.4,10.9,2.5,10.9h44.4c1.1,0,2.1-4.5,2.6-10.9C50.3,29.8,0.8,29.8,0.8,29.8z"/>
</g>
<g id="level40">
	<path class="st0" d="M0.6,26.3C0.9,34.6,2,40.7,3.2,40.7h44.4c1.3,0,2.4-6.1,2.7-14.4C50.3,26.3,0.6,26.3,0.6,26.3z"/>
</g>
<g id="level50">
	<path class="st0" d="M0.5,22.8c0.1,10,1.3,17.9,2.7,17.9h44.4c1.5,0,2.7-7.9,2.8-17.9C50.4,22.8,0.5,22.8,0.5,22.8z"/>
</g>
<g id="level60">
	<path class="st0" d="M0.5,21.6c0,10.5,1.2,19.1,2.7,19.1h44.4c1.6,0,2.8-8.5,2.8-19.1c0-0.8,0-1.5,0-2.3H0.5
		C0.5,20.1,0.5,20.9,0.5,21.6z"/>
</g>
<g id="level70">
	<path class="st0" d="M0.5,21.6c0,10.5,1.2,19.1,2.7,19.1h44.4c1.6,0,2.8-8.5,2.8-19.1c0-1.9,0-3.8-0.1-5.8H0.6
		C0.5,17.8,0.5,19.7,0.5,21.6z"/>
</g>
<g id="level80">
	<path class="st0" d="M0.5,21.6c0,10.5,1.2,19.1,2.7,19.1h44.4c1.6,0,2.8-8.5,2.8-19.1c0-3.1-0.1-6.2-0.4-9.2H0.9
		C0.6,15.5,0.5,18.6,0.5,21.6z"/>
</g>
<g id="level90">
	<path class="st0" d="M1.1,9.7L1.1,9.7c-0.4,4-0.6,8-0.6,11.9c0,10.5,1.2,19.1,2.7,19.1h44.4c1.6,0,2.8-8.5,2.8-19.1
		c0-4.1-0.2-8.2-0.7-12.3l-0.1-0.4H1.2L1.1,9.7z"/>
</g>
<g id="level100">
	<path class="st0" d="M49.8,9.4l-0.7-3.9H1.8L1.1,9.7l0,0c-0.4,4-0.6,8-0.6,11.9c0,10.5,1.2,19.1,2.7,19.1h44.4
		c1.6,0,2.8-8.5,2.8-19.1C50.5,17.5,50.3,13.4,49.8,9.4z"/>
</g>
<g id="frame">
	<path class="st1" d="M47.7,2.1h-1.4V0H40v2.1H11.3V0H5v2.1H3.2C0,2.1,0,20.8,0,21.6s0,19.6,3.2,19.6h44.4c3.3,0,3.3-18.8,3.3-19.6
		S51,2.1,47.7,2.1z M41,1h4.3v1H41V1z M6,1h4.3v1H6V1z M47.7,40.2H3.3C2.5,39.9,1,33.4,1,21.6C1,9.9,2.5,3.4,3.2,3.1H5h6.3h28.6h6.3
		h1.4C48.5,3.4,50,9.9,50,21.6C50,33.4,48.5,39.9,47.7,40.2z"/>
</g>
</svg>
