<?xml version="1.0" encoding="UTF-8" standalone="no"?>
<svg
   xmlns:dc="http://purl.org/dc/elements/1.1/"
   xmlns:cc="http://creativecommons.org/ns#"
   xmlns:rdf="http://www.w3.org/1999/02/22-rdf-syntax-ns#"
   xmlns:svg="http://www.w3.org/2000/svg"
   xmlns="http://www.w3.org/2000/svg"
   xmlns:xlink="http://www.w3.org/1999/xlink"
   height="374.40082"
   width="1517.0533"
   xml:space="preserve"
   viewBox="0 0 1517.0533 374.40082"
   y="0px"
   x="0px"
   id="Layer_1"
   version="1.1"><metadata
   id="metadata471"><rdf:RDF><cc:Work
       rdf:about=""><dc:format>image/svg+xml</dc:format><dc:type
         rdf:resource="http://purl.org/dc/dcmitype/StillImage" /><dc:title></dc:title></cc:Work></rdf:RDF></metadata><defs
   id="defs469" />
<style
   id="style10"
   type="text/css">
	.st0{display:none;}
	.st1{display:inline;opacity:0.5;fill:#4E2A0E;enable-background:new    ;}
	.st2{display:inline;opacity:0.5;fill:#623A1D;enable-background:new    ;}
	.st3{display:none;opacity:0.5;}
	.st4{display:inline;fill:#4E2A0E;}
	.st5{display:inline;opacity:0.5;}
	.st6{fill:#4E2A0E;}
	.st7{display:inline;opacity:0.5;fill:url(#SVGID_1_);enable-background:new    ;}
	.st8{display:inline;opacity:0.5;fill:url(#SVGID_2_);enable-background:new    ;}
	.st9{display:inline;opacity:0.5;fill:url(#SVGID_3_);enable-background:new    ;}
	.st10{display:inline;opacity:0.5;fill:url(#SVGID_4_);enable-background:new    ;}
	.st11{display:inline;opacity:0.5;fill:url(#SVGID_5_);enable-background:new    ;}
	.st12{display:inline;opacity:0.5;fill:url(#SVGID_6_);enable-background:new    ;}
	.st13{display:inline;opacity:0.5;fill:url(#SVGID_7_);enable-background:new    ;}
	.st14{display:inline;}
	.st15{opacity:0.5;fill:url(#SVGID_8_);enable-background:new    ;}
	.st16{opacity:0.5;fill:url(#SVGID_9_);enable-background:new    ;}
	.st17{opacity:0.5;fill:url(#SVGID_10_);enable-background:new    ;}
	.st18{opacity:0.5;fill:url(#SVGID_11_);enable-background:new    ;}
	.st19{display:inline;opacity:0.5;fill:url(#SVGID_12_);enable-background:new    ;}
	.st20{display:inline;opacity:0.5;fill:#006C63;enable-background:new    ;}
	.st21{display:inline;opacity:0.5;fill:url(#SVGID_13_);enable-background:new    ;}
	.st22{display:inline;opacity:0.5;fill:url(#SVGID_14_);enable-background:new    ;}
	.st23{display:inline;opacity:0.5;fill:url(#SVGID_15_);enable-background:new    ;}
	.st24{display:inline;opacity:0.5;fill:url(#SVGID_16_);enable-background:new    ;}
	.st25{display:inline;opacity:0.5;fill:url(#SVGID_17_);enable-background:new    ;}
	.st26{display:inline;opacity:0.5;fill:url(#SVGID_18_);enable-background:new    ;}
	.st27{display:inline;opacity:0.5;fill:url(#SVGID_19_);enable-background:new    ;}
	.st28{display:inline;opacity:0.5;fill:url(#SVGID_20_);enable-background:new    ;}
	.st29{display:inline;opacity:0.5;enable-background:new    ;}
	.st30{fill:url(#SVGID_21_);}
	.st31{fill:url(#SVGID_22_);}
	.st32{display:inline;opacity:0.5;fill:url(#SVGID_23_);enable-background:new    ;}
	.st33{display:inline;opacity:0.5;fill:#0063B0;enable-background:new    ;}
	.st34{display:inline;opacity:0.5;fill:#002B7F;enable-background:new    ;}
	.st35{opacity:0.5;fill:#002B7F;enable-background:new    ;}
	.st36{opacity:0.5;fill:#606060;enable-background:new    ;}
	.st37{fill:#F0EFEF;}
	.st38{font-family:'ArialMT';}
	.st39{font-size:16px;}
	.st40{font-size:20px;}
</style>
<g
   transform="translate(0,45.366815)"
   id="bg">
	<image
   xlink:href="tankSvg-image.png"
   style="overflow:visible"
   width="1817"
   height="380"
   transform="matrix(0.8343,0,0,0.8343,0,12)"
   id="image12">
	</image>
</g>
<g
   transform="translate(0,45.366815)"
   class="st0"
   id="influent10">
	<path
   id="path15"
   d="m 1378,276.2 c 0,0 111.6,0 116.1,0 4.5,0 4.3,-3.9 0,-8 -4.3,-4.1 -37.2,-33.9 -41,-36.8 -3.8,-2.9 -6.2,-6.5 -15.4,-6.5 -9.2,0 -53.9,0 -53.9,0 z"
   class="st1" />
	<path
   id="path17"
   d="m 1497.3,274.1 c -0.1,1.3 -1.2,2.1 -3.3,2.1 -4.5,0 -116.1,0 -116.1,0 l -1.6,12.6 c 0,0 102.9,0 112,0 9.1,0 7.7,-3.1 8,-4.6 0.4,-1.5 1.1,-10.1 1,-10.1 z"
   class="st2" />
</g>
<g
   transform="translate(0,45.366815)"
   class="st3"
   id="influent20">
	<path
   id="path20"
   d="m 1381.6,263.5 c 0,0 110.5,0 115,0 4.5,0 4.4,-3.9 0,-8 -4.4,-4.1 -37.5,-33.9 -41.4,-36.8 -3.8,-2.9 -6.3,-6.5 -15.5,-6.5 -9.2,0 -51.9,0 -51.9,0 z"
   class="st1" />
	<path
   id="path22"
   d="m 1496.6,263.5 c -4.5,0 -115,0 -115,0 l -2.9,25.3 c 0,0 108.6,0 112.1,0 3.5,0 5.7,-1.9 6.1,-4.3 0.4,-2.4 3,-22.9 3,-22.9 v 0 c -0.2,1.2 -1.3,1.9 -3.3,1.9 z"
   class="st4" />
</g>
<g
   transform="translate(0,45.366815)"
   class="st0"
   id="influent30">
	<path
   id="path25"
   d="m 1383.3,251.4 c 0,0 110.4,0 115,0 4.6,0 4.4,-3.8 0,-7.7 -4.4,-3.9 -37.4,-32.7 -41.3,-35.5 -3.8,-2.8 -6.2,-6.2 -15.5,-6.2 -9.2,0 -52.4,0 -52.4,0 z"
   class="st1" />
	<path
   id="path27"
   d="m 1498.2,251.4 c -4.5,0 -113.3,0 -114.9,0 l -4.6,37.4 c 0,0 106,0 111.1,0 5.1,0 7,-2.8 7.2,-4.8 0.3,-1.9 4.5,-34.2 4.5,-34.4 -0.3,1.1 -1.4,1.8 -3.3,1.8 z"
   class="st1" />
</g>
<g
   transform="translate(0,45.366815)"
   class="st0"
   id="influent40">
	<path
   id="path30"
   d="m 1384.2,240 c 0,0 110.9,0 115.5,0 4.6,0 4.4,-3.8 0,-7.7 -4.4,-3.9 -37.6,-32.7 -41.4,-35.5 -3.8,-2.8 -6.3,-6.2 -15.5,-6.2 -9.2,0 -52.6,0 -52.6,0 z"
   class="st1" />
	<g
   id="g36"
   class="st5">
		<path
   id="path32"
   d="m 1503,238 c 0,-0.1 0,-0.2 0,-0.2 v 0 c 0,0.1 0,0.1 0,0.2 z"
   class="st6" />
		<path
   id="path34"
   d="m 1499.7,240 c -4.5,0 -115.5,0 -115.5,0 l -5.5,48.8 c 0,0 108.9,0 112.4,0 3.5,0 5.5,-1.9 5.9,-5.2 0.4,-3.1 5.4,-41.3 5.9,-45.4 -0.2,1.1 -1.3,1.8 -3.2,1.8 z"
   class="st6" />
	</g>
</g>
<g
   transform="translate(0,45.366815)"
   class="st0"
   id="influent50">
	<path
   id="path39"
   d="m 1385.6,228.8 c 0,0 111.2,0 115.7,0 1.9,0 2.9,-0.6 3.3,-1.6 0.5,-1.5 -0.7,-3.7 -3.3,-6.1 -4.4,-3.9 -37.7,-32.7 -41.5,-35.5 -3.9,-2.8 -6.3,-6.2 -15.6,-6.2 -9.3,0 -52.7,0 -52.7,0 z"
   class="st1" />
	<path
   id="path41"
   d="m 1501.3,228.8 c -4.6,0 -115.7,0 -115.7,0 l -6.7,60 c 0,0 107.2,0 110.4,0 3.2,0 7.1,-1.1 7.5,-4.6 0.4,-3.4 7.7,-57 7.7,-57 -0.3,1 -1.3,1.6 -3.2,1.6 z"
   class="st1" />
</g>
<g
   transform="translate(0,45.366815)"
   class="st0"
   id="influent60">
	<path
   id="path44"
   d="m 1387.2,216.8 c 0,0 111.2,0 115.7,0 1.9,0 2.9,-0.6 3.3,-1.6 0.5,-1.5 -0.7,-3.8 -3.3,-6.1 -4.4,-4 -37.7,-32.8 -41.5,-35.6 -3.8,-2.8 -6.3,-6.3 -15.6,-6.3 -9.3,0 -52.7,0 -52.7,0 z"
   class="st1" />
	<path
   id="path46"
   d="m 1502.9,216.8 c -4.6,0 -115.7,0 -115.7,0 l -8.3,72 c 0,0 105.2,0 110.4,0 5.2,0 6.9,-2.3 7.7,-7.3 0.8,-5 9.1,-66.4 9.1,-66.4 -0.3,1 -1.4,1.7 -3.2,1.7 z"
   class="st1" />
</g>
<g
   transform="translate(0,45.366815)"
   class="st0"
   id="influent70">
	<path
   id="path49"
   d="m 1388.5,204.7 c 0,0 111.5,0 116.1,0 1.9,0 3,-0.6 3.3,-1.6 0.5,-1.5 -0.7,-3.7 -3.3,-6 -4.4,-3.9 -38.2,-32.4 -42.1,-35.2 -3.9,-2.8 -6.4,-6.2 -15.8,-6.2 -9.4,0 -52.2,0 -52.2,0 z"
   class="st1" />
	<path
   id="path51"
   d="m 1504.6,204.7 c -4.6,0 -116.1,0 -116.1,0 l -9.7,84.1 c 0,0 107.1,0 111.7,0 4.6,0 5.7,-2.6 6.3,-6.2 0.6,-3.7 11,-79.6 11,-79.6 -0.2,1 -1.3,1.7 -3.2,1.7 z"
   class="st1" />
</g>
<g
   transform="translate(0,45.366815)"
   class="st0"
   id="influent80">
	<path
   id="path54"
   d="m 1389.9,192.1 c 0,0 111.9,0 116.5,0 1.9,0 3,-0.6 3.3,-1.6 0.5,-1.4 -0.7,-3.6 -3.3,-5.9 -4.5,-3.8 -38.3,-31.8 -42.2,-34.5 -3.9,-2.7 -6.4,-6.1 -15.8,-6.1 -9.5,0 -52.4,0 -52.4,0 z"
   class="st1" />
	<path
   id="path56"
   d="m 1506.4,192.1 c -4.6,0 -116.5,0 -116.5,0 l -10.8,96.7 c 0,0 102,0 108.4,0 6.5,0 8.6,-2.8 9.4,-6.9 0.8,-4.1 12.8,-91.4 12.8,-91.4 -0.3,1 -1.4,1.6 -3.3,1.6 z"
   class="st1" />
</g>
<g
   transform="translate(0,45.366815)"
   class="st0"
   id="influent90">
	<path
   id="path59"
   d="m 1391.8,179.7 c 0,0 111.9,0 116.5,0 1.9,0 3,-0.6 3.3,-1.6 0.5,-1.4 -0.7,-3.5 -3.3,-5.8 -4.5,-3.7 -38.3,-31 -42.2,-33.6 -3.9,-2.6 -6.4,-5.9 -15.8,-5.9 -9.5,0 -52.4,0 -52.4,0 z"
   class="st1" />
	<path
   id="path61"
   d="m 1508.3,179.7 c -4.6,0 -116.5,0 -116.5,0 l -13.3,109.1 c 0,0 106.3,0 111.4,0 5.2,0 6.5,-2.9 7,-6.3 0.5,-3.4 14.6,-104.4 14.6,-104.4 -0.2,1 -1.3,1.6 -3.2,1.6 z"
   class="st1" />
</g>
<g
   transform="translate(0,45.366815)"
   class="st0"
   id="influent100">
	<path
   id="path64"
   d="m 1393.7,166.3 c 0,0 111.9,0 116.5,0 1.9,0 3,-0.6 3.3,-1.5 0.5,-1.4 -0.7,-3.5 -3.3,-5.6 -4.5,-3.6 -38.3,-30.1 -42.2,-32.7 -3.9,-2.6 -6.4,-5.8 -15.8,-5.8 -9.5,0 -52.4,0 -52.4,0 z"
   class="st1" />
	<path
   id="path66"
   d="m 1510.2,166.3 c -4.6,0 -116.5,0 -116.5,0 l -14.8,122.5 c 0,0 104.7,0 110.7,0 6,0 7.1,-4 7.4,-6.4 0.3,-2.4 16.5,-117.7 16.5,-117.7 -0.3,1 -1.4,1.6 -3.3,1.6 z"
   class="st1" />
</g>
<g
   transform="translate(0,45.366815)"
   class="st0"
   id="filter10">
	
		<ellipse
   id="ellipse69"
   ry="36"
   rx="9.3000002"
   cy="159.60001"
   cx="928.90002"
   class="st2"
   transform="matrix(0.02217839,-0.9998,0.9998,0.02217839,748.7032,1084.7678)" />
	
		<linearGradient
   gradientTransform="matrix(1,0,0,-1,0,334)"
   y2="175.1205"
   x2="928.9491"
   y1="159.8916"
   x1="928.9491"
   gradientUnits="userSpaceOnUse"
   id="SVGID_1_">
		<stop
   id="stop71"
   style="stop-color:#0D988C"
   offset="0" />
		<stop
   id="stop73"
   style="stop-color:#794A2C"
   offset="1" />
	</linearGradient>
	<path
   style="fill:url(#SVGID_1_)"
   id="path76"
   d="m 964.9,160.5 c -0.1,5.2 -16.4,9 -36.2,8.5 -19.9,-0.4 -35.9,-5 -35.7,-10.2 v 5 c -0.1,5.2 15.9,9.7 35.7,10.2 19.9,0.4 36.1,-3.4 36.2,-8.5 z"
   class="st7" />
</g>
<g
   transform="translate(0,45.366815)"
   class="st0"
   id="filter20">
	
		<ellipse
   id="ellipse79"
   ry="36"
   rx="9.3000002"
   cy="154.60001"
   cx="928.90002"
   class="st2"
   transform="matrix(0.02217839,-0.9998,0.9998,0.02217839,753.7308,1079.7762)" />
	
		<linearGradient
   gradientTransform="matrix(1,0,0,-1,0,334)"
   y2="180.1875"
   x2="928.9491"
   y1="159.9586"
   x1="928.9491"
   gradientUnits="userSpaceOnUse"
   id="SVGID_2_">
		<stop
   id="stop81"
   style="stop-color:#0D988C"
   offset="0" />
		<stop
   id="stop83"
   style="stop-color:#794A2C"
   offset="1" />
	</linearGradient>
	<path
   style="fill:url(#SVGID_2_)"
   id="path86"
   d="m 964.9,155.4 c -0.1,5.2 -16.4,9 -36.2,8.5 -19.9,-0.4 -35.9,-5 -35.7,-10.2 v 10 c -0.1,5.2 15.9,9.7 35.7,10.2 19.9,0.4 36.1,-3.4 36.2,-8.5 z"
   class="st8" />
</g>
<g
   transform="translate(0,45.366815)"
   class="st0"
   id="filter30">
	
		<ellipse
   id="ellipse89"
   ry="36"
   rx="9.3000002"
   cy="149.5"
   cx="928.90002"
   class="st2"
   transform="matrix(0.02217839,-0.9998,0.9998,0.02217839,758.8539,1074.8866)" />
	
		<linearGradient
   gradientTransform="matrix(1,0,0,-1,0,334)"
   y2="185.25349"
   x2="928.9491"
   y1="159.95869"
   x1="928.9491"
   gradientUnits="userSpaceOnUse"
   id="SVGID_3_">
		<stop
   id="stop91"
   style="stop-color:#0D988C"
   offset="0" />
		<stop
   id="stop93"
   style="stop-color:#794A2C"
   offset="1" />
	</linearGradient>
	<path
   style="fill:url(#SVGID_3_)"
   id="path96"
   d="m 964.9,150.4 c -0.1,5.2 -16.4,9 -36.2,8.5 -19.9,-0.4 -35.9,-5 -35.7,-10.2 V 163 c -0.1,5.6 15.9,10.5 35.7,11 19.9,0.5 36.1,-3.6 36.2,-9.2 z"
   class="st9" />
</g>
<g
   transform="translate(0,45.366815)"
   class="st0"
   id="filter40">
	
		<ellipse
   id="ellipse99"
   ry="36"
   rx="9.3000002"
   cy="144.39999"
   cx="928.90002"
   class="st2"
   transform="matrix(0.02217839,-0.9998,0.9998,0.02217839,763.8815,1069.895)" />
	
		<linearGradient
   gradientTransform="matrix(1,0,0,-1,0,334)"
   y2="190.3065"
   x2="928.9491"
   y1="159.12669"
   x1="928.9491"
   gradientUnits="userSpaceOnUse"
   id="SVGID_4_">
		<stop
   id="stop101"
   style="stop-color:#0D988C"
   offset="0" />
		<stop
   id="stop103"
   style="stop-color:#794A2C"
   offset="1" />
	</linearGradient>
	<path
   style="fill:url(#SVGID_4_)"
   id="path106"
   d="m 964.9,145.3 c -0.1,5.2 -16.4,9 -36.2,8.5 -19.8,-0.5 -35.9,-5 -35.7,-10.2 v 20.2 c -0.1,5.6 15.9,10.5 35.7,11 19.9,0.5 36.1,-3.6 36.2,-9.2 z"
   class="st10" />
</g>
<g
   transform="translate(0,45.366815)"
   class="st0"
   id="filter50">
	
		<ellipse
   id="ellipse109"
   ry="36"
   rx="9.3000002"
   cy="139.39999"
   cx="928.79999"
   class="st2"
   transform="matrix(0.02217839,-0.9998,0.9998,0.02217839,768.9091,1064.9034)" />
	
		<linearGradient
   gradientTransform="matrix(1,0,0,-1,0,334)"
   y2="195.40221"
   x2="928.9491"
   y1="159.15871"
   x1="928.9491"
   gradientUnits="userSpaceOnUse"
   id="SVGID_5_">
		<stop
   id="stop111"
   style="stop-color:#0D988C"
   offset="0" />
		<stop
   id="stop113"
   style="stop-color:#794A2C"
   offset="1" />
	</linearGradient>
	<path
   style="fill:url(#SVGID_5_)"
   id="path116"
   d="m 964.9,140.2 c -0.1,5.2 -16.4,9 -36.2,8.5 -19.9,-0.4 -35.9,-5 -35.7,-10.2 v 25.3 c -0.1,5.6 15.9,10.5 35.7,11 19.9,0.5 36.1,-3.6 36.2,-9.2 z"
   class="st11" />
</g>
<g
   transform="translate(0,45.366815)"
   class="st0"
   id="filter60">
	<path
   id="path119"
   d="m 959.3,133.6 c -7.1,-2.8 -9,-3.8 -9.1,-6.3 -5.9,-1.3 -13.2,-2.1 -21.1,-2.3 -19.9,-0.4 -36.1,3.4 -36.2,8.5 -0.1,5.2 15.9,9.7 35.7,10.2 19.9,0.4 36.1,-3.4 36.2,-8.5 0,-0.1 0,-0.1 0,-0.2 -1.8,-0.2 -3.7,-0.7 -5.5,-1.4 z"
   class="st2" />
	
		<linearGradient
   gradientTransform="matrix(1,0,0,-1,0,334)"
   y2="200.5"
   x2="928.84912"
   y1="159.15871"
   x1="928.84912"
   gradientUnits="userSpaceOnUse"
   id="SVGID_6_">
		<stop
   id="stop121"
   style="stop-color:#0D988C"
   offset="0" />
		<stop
   id="stop123"
   style="stop-color:#794A2C"
   offset="1" />
	</linearGradient>
	<path
   style="fill:url(#SVGID_6_)"
   id="path126"
   d="m 928.6,143.7 c -19.9,-0.4 -35.9,-5 -35.7,-10.2 v 30.3 c -0.1,5.6 15.9,10.5 35.7,11 19.9,0.5 36.1,-3.6 36.2,-9.2 v -30.4 c -0.1,5.1 -16.3,9 -36.2,8.5 z"
   class="st12" />
</g>
<g
   transform="translate(0,45.366815)"
   class="st0"
   id="filter70">
	<path
   id="path129"
   d="m 959.3,133.6 c -7.2,-2.9 -9.1,-3.8 -9.1,-6.4 0,-2.6 2.6,-4.9 4.9,-3.6 2.1,1.1 4.9,2.8 8.3,3.3 -5,-3.7 -18.1,-6.5 -33.6,-6.9 -19.9,-0.4 -36.1,3.4 -36.2,8.5 -0.1,5.2 15.9,9.7 35.7,10.2 14,0.3 26.1,-1.5 32.2,-4.4 -0.8,-0.2 -1.5,-0.5 -2.2,-0.7 z"
   class="st2" />
	
		<linearGradient
   gradientTransform="matrix(1,0,0,-1,0,334)"
   y2="205.4976"
   x2="929.09979"
   y1="159.12669"
   x1="929.09979"
   gradientUnits="userSpaceOnUse"
   id="SVGID_7_">
		<stop
   id="stop131"
   style="stop-color:#0D988C"
   offset="0" />
		<stop
   id="stop133"
   style="stop-color:#794A2C"
   offset="1" />
	</linearGradient>
	<path
   style="fill:url(#SVGID_7_)"
   id="path136"
   d="m 961.4,134.3 c -6,2.9 -18.2,4.7 -32.2,4.4 -19.9,-0.4 -35.9,-5 -35.7,-10.2 l -0.6,35.4 c -0.1,5.6 15.9,10.5 35.7,11 19.9,0.5 36.1,-3.6 36.2,-9.2 l 0.5,-30.5 c -1.2,-0.3 -2.5,-0.5 -3.9,-0.9 z"
   class="st13" />
</g>
<g
   transform="translate(0,45.366815)"
   class="st0"
   id="filter80">
	<path
   id="path139"
   d="m 950.2,127.2 c 0,-2.6 2.6,-4.9 4.9,-3.6 2.2,1.2 5.2,3.1 8.9,3.4 0.2,0 0.5,0 0.7,0.1 0.5,-0.6 0.8,-1.3 0.8,-1.9 0.1,-5.2 -15.9,-9.7 -35.7,-10.2 -19.9,-0.4 -36.1,3.4 -36.2,8.5 -0.1,5.2 15.9,9.7 35.7,10.2 9.8,0.2 18.6,-0.6 25.1,-2.1 -3.2,-1.6 -4.2,-2.6 -4.2,-4.4 z"
   class="st2" />
	<g
   id="g155"
   class="st14">
		
			<linearGradient
   gradientTransform="matrix(1,0,0,-1,0,334)"
   y2="210.56799"
   x2="929.19983"
   y1="159.12669"
   x1="929.19983"
   gradientUnits="userSpaceOnUse"
   id="SVGID_8_">
			<stop
   id="stop141"
   style="stop-color:#0D988C"
   offset="0" />
			<stop
   id="stop143"
   style="stop-color:#794A2C"
   offset="1" />
		</linearGradient>
		<path
   style="fill:url(#SVGID_8_)"
   id="path146"
   d="m 959.3,133.6 c -2,-0.8 -3.6,-1.5 -4.9,-2 -6.5,1.5 -15.4,2.3 -25.1,2.1 -19.9,-0.4 -35.9,-5 -35.7,-10.2 l -0.6,40.4 c -0.1,5.6 15.9,10.5 35.7,11 19.9,0.5 36.1,-3.6 36.2,-9.2 l 0.5,-30.5 c -2,-0.4 -4.1,-0.8 -6.1,-1.6 z"
   class="st15" />
		
			<linearGradient
   gradientTransform="matrix(1,0,0,-1,0,334)"
   y2="208.9455"
   x2="965.09998"
   y1="206.98351"
   x1="965.09998"
   gradientUnits="userSpaceOnUse"
   id="SVGID_9_">
			<stop
   id="stop148"
   style="stop-color:#0D988C"
   offset="0" />
			<stop
   id="stop150"
   style="stop-color:#794A2C"
   offset="1" />
		</linearGradient>
		<path
   style="fill:url(#SVGID_9_)"
   id="path153"
   d="m 965.5,127 v -2 c 0,0.7 -0.3,1.3 -0.8,1.9 0.2,0.1 0.5,0.1 0.8,0.1 z"
   class="st16" />
	</g>
</g>
<g
   transform="translate(0,45.366815)"
   class="st0"
   id="filter90">
	<path
   id="path158"
   d="m 950.2,127.2 c 0,-2.6 2.6,-4.9 4.9,-3.6 1,0.5 2.1,1.2 3.4,1.8 4.4,-1.4 7,-3.3 7,-5.3 0.1,-5.2 -15.9,-9.7 -35.7,-10.2 -19.9,-0.4 -36.1,3.4 -36.2,8.5 -0.1,5.2 15.9,9.7 35.7,10.2 7.8,0.1 15,-0.4 20.9,-1.4 z"
   class="st2" />
	<g
   id="g174"
   class="st14">
		
			<linearGradient
   gradientTransform="matrix(1,0,0,-1,0,334)"
   y2="214.0092"
   x2="961.90002"
   y1="206.98599"
   x1="961.90002"
   gradientUnits="userSpaceOnUse"
   id="SVGID_10_">
			<stop
   id="stop160"
   style="stop-color:#0D988C"
   offset="0" />
			<stop
   id="stop162"
   style="stop-color:#794A2C"
   offset="1" />
		</linearGradient>
		<path
   style="fill:url(#SVGID_10_)"
   id="path165"
   d="m 963.9,126.9 c 0.5,0 1,0.1 1.4,0.1 l 0.1,-7 c -0.1,2.1 -2.7,3.9 -7,5.3 1.7,0.8 3.5,1.4 5.5,1.6 z"
   class="st17" />
		
			<linearGradient
   gradientTransform="matrix(1,0,0,-1,0,334)"
   y2="215.668"
   x2="929.0498"
   y1="159.12669"
   x1="929.0498"
   gradientUnits="userSpaceOnUse"
   id="SVGID_11_">
			<stop
   id="stop167"
   style="stop-color:#0D988C"
   offset="0" />
			<stop
   id="stop169"
   style="stop-color:#794A2C"
   offset="1" />
		</linearGradient>
		<path
   style="fill:url(#SVGID_11_)"
   id="path172"
   d="m 959.3,133.6 c -7.1,-2.8 -9,-3.8 -9.1,-6.3 -5.9,1 -13.2,1.4 -21,1.3 -19.9,-0.4 -35.9,-5 -35.7,-10.2 l -0.6,45.5 c -0.1,5.6 15.9,10.5 35.7,11 19.9,0.5 36.1,-3.6 36.2,-9.2 l 0.4,-30.5 c -1.9,-0.4 -3.9,-0.8 -5.9,-1.6 z"
   class="st18" />
	</g>
</g>
<g
   transform="translate(0,45.366815)"
   class="st0"
   id="filter100">
	
		<ellipse
   id="ellipse177"
   ry="36"
   rx="9.3000002"
   cy="114.1"
   cx="929.79999"
   class="st2"
   transform="matrix(0.02217839,-0.9998,0.9998,0.02217839,795.0458,1041.1558)" />
	
		<linearGradient
   gradientTransform="matrix(1,0,0,-1,0,334)"
   y2="220.7"
   x2="929.44983"
   y1="159.45869"
   x1="929.44983"
   gradientUnits="userSpaceOnUse"
   id="SVGID_12_">
		<stop
   id="stop179"
   style="stop-color:#0D988C"
   offset="0" />
		<stop
   id="stop181"
   style="stop-color:#794A2C"
   offset="1" />
	</linearGradient>
	<path
   style="fill:url(#SVGID_12_)"
   id="path184"
   d="m 959.3,133.6 c -7.2,-2.9 -9.1,-3.8 -9.1,-6.4 0,-2.6 2.6,-4.9 4.9,-3.6 2.2,1.2 5.2,3.1 8.9,3.4 0.5,0 1,0.1 1.6,0.1 l 0.2,-12.1 c -0.1,5.2 -16.4,9 -36.2,8.5 -19.8,-0.5 -35.9,-5 -35.7,-10.2 l -0.8,50.2 c -0.1,5.6 15.9,10.5 35.7,11 19.9,0.5 36.1,-3.6 36.2,-9.2 l 0.5,-30.2 c -2.1,-0.3 -4.2,-0.7 -6.2,-1.5 z"
   class="st19" />
</g>
<g
   transform="translate(0,45.366815)"
   class="st0"
   id="transfer10">
	<path
   id="path187"
   d="m 734.7,198.4 c -7.9,0 -15.4,0.5 -22.2,1.5 l 0.5,33.6 c 6.7,0.9 14,1.4 21.7,1.4 30.8,0 55.7,-8.2 55.7,-18.3 0,-10.1 -25,-18.2 -55.7,-18.2 z"
   class="st20" />
	
		<linearGradient
   gradientTransform="matrix(1,0,0,-1,0,334)"
   y2="90.099998"
   x2="751.70001"
   y1="117.3"
   x1="751.70001"
   gradientUnits="userSpaceOnUse"
   id="SVGID_13_">
		<stop
   id="stop189"
   style="stop-color:#0D988C"
   offset="0" />
		<stop
   id="stop191"
   style="stop-color:#0063B0"
   offset="1" />
	</linearGradient>
	<path
   style="fill:url(#SVGID_13_)"
   id="path194"
   d="m 734.7,235 c -7.7,0 -15,-0.5 -21.7,-1.4 v 8.9 c 6.7,0.9 14,1.4 21.7,1.4 30.8,0 55.7,-8.2 55.7,-18.3 v -8.9 c 0,10.1 -25,18.3 -55.7,18.3 z"
   class="st21" />
</g>
<g
   transform="translate(0,45.366815)"
   class="st0"
   id="transfer20">
	<path
   id="path197"
   d="m 734.7,189.3 c -7.9,0 -15.4,0.5 -22.2,1.5 l 0.4,33.5 c 6.7,0.9 14.1,1.6 21.8,1.6 30.8,0 55.7,-8.2 55.7,-18.3 0,-10.1 -25,-18.3 -55.7,-18.3 z"
   class="st20" />
	
		<linearGradient
   gradientTransform="matrix(1,0,0,-1,0,334)"
   y2="90.099998"
   x2="751.65002"
   y1="126.4"
   x1="751.65002"
   gradientUnits="userSpaceOnUse"
   id="SVGID_14_">
		<stop
   id="stop199"
   style="stop-color:#0D988C"
   offset="0" />
		<stop
   id="stop201"
   style="stop-color:#0063B0"
   offset="1" />
	</linearGradient>
	<path
   style="fill:url(#SVGID_14_)"
   id="path204"
   d="m 734.7,225.9 c -7.7,0 -15.2,-0.6 -21.8,-1.6 v 18 c 6.7,0.9 14.1,1.6 21.8,1.6 30.8,0 55.7,-8.2 55.7,-18.3 v -18 c 0,10.1 -25,18.3 -55.7,18.3 z"
   class="st22" />
</g>
<g
   transform="translate(0,45.366815)"
   class="st0"
   id="transfer30">
	<path
   id="path207"
   d="m 734.7,182.5 c -7.9,0 -15.4,0.5 -22.2,1.4 l 0.5,31.7 c 6.7,0.9 14,1.4 21.7,1.4 30.8,0 55.7,-7.7 55.7,-17.3 0,-9.6 -25,-17.2 -55.7,-17.2 z"
   class="st20" />
	
		<linearGradient
   gradientTransform="matrix(1,0,0,-1,0,334)"
   y2="90.152298"
   x2="751.59998"
   y1="134.3"
   x1="751.59998"
   gradientUnits="userSpaceOnUse"
   id="SVGID_15_">
		<stop
   id="stop209"
   style="stop-color:#0D988C"
   offset="0" />
		<stop
   id="stop211"
   style="stop-color:#0063B0"
   offset="1" />
	</linearGradient>
	<path
   style="fill:url(#SVGID_15_)"
   id="path214"
   d="m 734.7,217 c -7.7,0 -15,-0.5 -21.7,-1.4 l -0.2,14.5 0.2,12.4 c 6.7,0.9 14,1.4 21.7,1.4 30.8,0 55.7,-7.7 55.7,-17.3 v -26.9 c 0,9.6 -25,17.3 -55.7,17.3 z"
   class="st23" />
</g>
<g
   transform="translate(0,45.366815)"
   class="st0"
   id="transfer40">
	<path
   id="path217"
   d="m 734.7,176.3 c -7.9,0 -15.4,0.5 -22.2,1.3 l 0.5,29.3 c 6.7,0.8 14,1.3 21.7,1.3 30.8,0 55.7,-7.1 55.7,-15.9 0,-8.8 -25,-16 -55.7,-16 z"
   class="st20" />
	
		<linearGradient
   gradientTransform="matrix(1,0,0,-1,0,334)"
   y2="89.860901"
   x2="751.45001"
   y1="141.8"
   x1="751.45001"
   gradientUnits="userSpaceOnUse"
   id="SVGID_16_">
		<stop
   id="stop219"
   style="stop-color:#0D988C"
   offset="0" />
		<stop
   id="stop221"
   style="stop-color:#0063B0"
   offset="1" />
	</linearGradient>
	<path
   style="fill:url(#SVGID_16_)"
   id="path224"
   d="m 734.7,208.2 c -7.7,0 -15,-0.4 -21.7,-1.3 v 4.1 c -0.2,0 -0.3,0 -0.5,0.1 l 0.5,31.7 c 6.7,0.9 14,1.4 21.7,1.4 30.8,0 55.7,-7.7 55.7,-17.3 v -34.7 c 0,8.8 -25,16 -55.7,16 z"
   class="st24" />
</g>
<g
   transform="translate(0,45.366815)"
   class="st0"
   id="transfer50">
	
		<linearGradient
   gradientTransform="matrix(1,0,0,-1,0,334)"
   y2="89.866898"
   x2="751.45001"
   y1="149.60001"
   x1="751.45001"
   gradientUnits="userSpaceOnUse"
   id="SVGID_17_">
		<stop
   id="stop227"
   style="stop-color:#0D988C"
   offset="0" />
		<stop
   id="stop229"
   style="stop-color:#0063B0"
   offset="1" />
	</linearGradient>
	<path
   style="fill:url(#SVGID_17_)"
   id="path232"
   d="m 734.7,199 c -7.7,0 -15,-0.4 -21.7,-1.1 l -0.5,13.2 0.5,31.7 c 6.7,0.9 14,1.4 21.7,1.4 30.8,0 55.7,-7.7 55.7,-17.3 v -42.5 c 0,8.1 -25,14.6 -55.7,14.6 z"
   class="st25" />
	<path
   id="path234"
   d="m 734.7,169.8 c -2,0 -3.9,0 -5.8,0.1 -7.6,3.2 -15.8,3 -16.4,3 l 0.5,25 c 6.7,0.7 14,1.1 21.7,1.1 30.8,0 55.7,-6.5 55.7,-14.6 0,-8.1 -25,-14.6 -55.7,-14.6 z"
   class="st20" />
</g>
<g
   transform="translate(0,45.366815)"
   class="st0"
   id="traansfer60">
	
		<linearGradient
   gradientTransform="matrix(1,0,0,-1,0,334)"
   y2="89.788902"
   x2="751.45001"
   y1="158.78889"
   x1="751.45001"
   gradientUnits="userSpaceOnUse"
   id="SVGID_18_">
		<stop
   id="stop237"
   style="stop-color:#0D988C"
   offset="0" />
		<stop
   id="stop239"
   style="stop-color:#0063B0"
   offset="1" />
	</linearGradient>
	<path
   style="fill:url(#SVGID_18_)"
   id="path242"
   d="m 734.7,188.8 c -7.7,0 -15,-0.4 -21.7,-1.1 l -0.5,23.3 0.5,31.7 c 6.7,0.9 14,1.4 21.7,1.4 30.8,0 55.7,-7.7 55.7,-17.3 v -51.7 c 0,7.6 -25,13.7 -55.7,13.7 z"
   class="st26" />
	<path
   id="path244"
   d="m 734.7,161.6 c -7.9,0 -15.4,0.4 -22.2,1.1 l 0.1,6.5 c 13.7,0 19.9,-4.9 19.9,-4.9 0,0 1.9,-1.6 2.9,-0.4 1,1.2 0,2.1 0,2.1 -8.1,7 -20.9,6.9 -22.7,6.9 l 0.3,14.9 c 6.7,0.7 14,1.1 21.7,1.1 30.8,0 55.7,-6.1 55.7,-13.6 0,-7.6 -25,-13.7 -55.7,-13.7 z"
   class="st20" />
</g>
<g
   transform="translate(0,45.366815)"
   class="st0"
   id="transfer70">
	
		<linearGradient
   gradientTransform="matrix(1,0,0,-1,0,334)"
   y2="89.790001"
   x2="751.45001"
   y1="166.89"
   x1="751.45001"
   gradientUnits="userSpaceOnUse"
   id="SVGID_19_">
		<stop
   id="stop247"
   style="stop-color:#0D988C"
   offset="0" />
		<stop
   id="stop249"
   style="stop-color:#0063B0"
   offset="1" />
	</linearGradient>
	<path
   style="fill:url(#SVGID_19_)"
   id="path252"
   d="m 734.7,180.7 c -7.7,0 -15,-0.4 -21.7,-1.1 l -0.5,31.4 0.5,31.7 c 6.7,0.9 14,1.4 21.7,1.4 30.8,0 55.7,-7.7 55.7,-17.3 V 167 c 0,7.6 -25,13.7 -55.7,13.7 z"
   class="st27" />
	<path
   id="path254"
   d="m 734.7,153.5 c -7.9,0 -15.4,0.4 -22.2,1.1 0,0 -3.3,0.3 -4.6,0.9 0,0 4.8,5.8 4.8,7.9 l 0.1,5.8 c 13.6,-0.1 19.7,-4.9 19.7,-4.9 0,0 1.9,-1.6 2.9,-0.4 1,1.2 0,2.1 0,2.1 -7.9,6.8 -20.2,6.9 -22.5,6.9 l 0.1,6.8 c 6.7,0.7 14,1.1 21.7,1.1 30.8,0 55.7,-6.1 55.7,-13.6 0,-7.6 -25,-13.7 -55.7,-13.7 z"
   class="st20" />
</g>
<g
   transform="translate(0,45.366815)"
   class="st0"
   id="transfer80">
	
		<linearGradient
   gradientTransform="matrix(1,0,0,-1,0,334)"
   y2="89.800003"
   x2="751.45001"
   y1="173.3"
   x1="751.45001"
   gradientUnits="userSpaceOnUse"
   id="SVGID_20_">
		<stop
   id="stop257"
   style="stop-color:#0D988C"
   offset="0" />
		<stop
   id="stop259"
   style="stop-color:#0063B0"
   offset="1" />
	</linearGradient>
	<path
   style="fill:url(#SVGID_20_)"
   id="path262"
   d="m 734.7,174.4 c -7.7,0 -15,-0.4 -21.7,-1.1 l -0.5,37.8 0.5,31.7 c 6.7,0.9 14,1.4 21.7,1.4 30.8,0 55.7,-7.7 55.7,-17.3 v -66.2 c 0,7.6 -25,13.7 -55.7,13.7 z"
   class="st28" />
	<path
   id="path264"
   d="m 734.7,147.1 c -7.9,0 -15.4,0.4 -22.2,1.1 0,0 -3.9,0.9 -4.8,1.9 v 5.9 c 0,0 5.2,5.9 5.2,11.4 v 1.8 c 13.5,-0.1 19.6,-4.9 19.6,-4.9 0,0 1.9,-1.6 2.9,-0.4 1,1.2 0,2.1 0,2.1 -7.8,6.7 -19.8,6.9 -22.4,6.9 v 0.4 c 6.7,0.7 14,1.1 21.7,1.1 30.8,0 55.7,-6.1 55.7,-13.6 0,-7.6 -25,-13.7 -55.7,-13.7 z"
   class="st20" />
</g>
<g
   transform="translate(0,45.366815)"
   class="st0"
   id="transfer90">
	<g
   id="g281"
   class="st29">
		
			<linearGradient
   gradientTransform="matrix(1,0,0,-1,0,334)"
   y2="164.77521"
   x2="718.79999"
   y1="167.10001"
   x1="718.79999"
   gradientUnits="userSpaceOnUse"
   id="SVGID_21_">
			<stop
   id="stop267"
   style="stop-color:#0D988C"
   offset="0" />
			<stop
   id="stop269"
   style="stop-color:#0063B0"
   offset="1" />
		</linearGradient>
		<path
   style="fill:url(#SVGID_21_)"
   id="path272"
   d="m 724.6,167.7 c -4,-0.2 -7.9,-0.5 -11.6,-0.8 v 2.3 c 4.7,0 8.6,-0.7 11.6,-1.5 z"
   class="st30" />
		
			<linearGradient
   gradientTransform="matrix(1,0,0,-1,0,334)"
   y2="89.800003"
   x2="751.45001"
   y1="179.7"
   x1="751.45001"
   gradientUnits="userSpaceOnUse"
   id="SVGID_22_">
			<stop
   id="stop274"
   style="stop-color:#0D988C"
   offset="0" />
			<stop
   id="stop276"
   style="stop-color:#0063B0"
   offset="1" />
		</linearGradient>
		<path
   style="fill:url(#SVGID_22_)"
   id="path279"
   d="m 734.7,168 c -0.7,0 -1.3,0 -2,0 -7.7,4.8 -17.6,5 -19.8,4.9 l -0.4,38.2 0.5,31.7 c 6.7,0.9 14,1.4 21.7,1.4 30.8,0 55.7,-7.7 55.7,-17.3 v -72.6 c 0,7.6 -25,13.7 -55.7,13.7 z"
   class="st31" />
	</g>
	<path
   id="path283"
   d="m 734.7,140.7 c -7.9,0 -15.4,0.4 -22.2,1.1 0,0 -2.9,0.5 -4.6,1.2 v 13 c 0,0 5.2,4.9 5.2,10.9 3.7,0.4 7.6,0.7 11.6,0.8 5.4,-1.5 7.9,-3.4 7.9,-3.4 0,0 1.9,-1.6 2.9,-0.4 1,1.2 0,2.1 0,2.1 -0.8,0.7 -1.8,1.4 -2.7,2 0.7,0 1.3,0 2,0 30.8,0 55.7,-6.1 55.7,-13.6 -0.1,-7.6 -25.1,-13.7 -55.8,-13.7 z"
   class="st20" />
</g>
<g
   transform="translate(0,45.366815)"
   class="st0"
   id="transfer100">
	<path
   id="path286"
   d="m 734.7,134.3 c -7.9,0 -15.4,0.4 -22.2,1.1 0,0 -4.9,1 -6.1,1.7 l 1.7,1.4 v 17 c 0,0 4.9,6.2 4.9,12.7 l 0.1,-7.7 c 6.7,0.7 14,1.1 21.7,1.1 30.8,0 55.7,-6.1 55.7,-13.6 -0.1,-7.6 -25.1,-13.7 -55.8,-13.7 z"
   class="st20" />
	
		<linearGradient
   gradientTransform="matrix(1,0,0,-1,0,334)"
   y2="137.89999"
   x2="790.40002"
   y1="137.89999"
   x1="712.5"
   gradientUnits="userSpaceOnUse"
   id="SVGID_23_">
		<stop
   id="stop288"
   style="stop-color:#0D988C"
   offset="0" />
		<stop
   id="stop290"
   style="stop-color:#0063B0"
   offset="1" />
	</linearGradient>
	<path
   style="fill:url(#SVGID_23_)"
   id="path293"
   d="m 734.7,161.6 c -7.7,0 -15,-0.4 -21.7,-1.1 l -0.1,8.7 c 13.5,-0.1 19.6,-4.9 19.6,-4.9 0,0 1.9,-1.6 2.9,-0.4 1,1.2 0,2.1 0,2.1 -7.9,6.8 -20.2,6.9 -22.5,6.9 l -0.4,35.4 0.5,34.4 c 6.7,0.9 14,1.5 21.7,1.5 30.8,0 55.7,-8.4 55.7,-18.7 V 148 c 0,7.5 -25,13.6 -55.7,13.6 z"
   class="st32" />
</g>
<g
   transform="translate(0,45.366815)"
   class="st0"
   id="freshA10">
	<polygon
   id="polygon296"
   points="377.6,299.2 565.2,299.2 566.9,291.5 566.5,278 565.2,283.7 377.6,283.7 "
   class="st33" />
	<polygon
   id="polygon298"
   points="564.3,198.9 419.7,198.9 377.6,283.7 565.2,283.7 566.5,278 "
   class="st34" />
</g>
<g
   transform="translate(0,45.366815)"
   class="st0"
   id="freshA20">
	<polygon
   id="polygon301"
   points="378.6,298 565.2,298 566.9,290.7 566.2,266.4 565.2,270.7 377.6,270.7 "
   class="st33" />
	<polygon
   id="polygon303"
   points="563.8,184.6 419.7,184.6 377.6,270.7 565.2,270.7 566.2,266.4 "
   class="st34" />
</g>
<g
   transform="translate(0,45.366815)"
   class="st0"
   id="freshA30">
	<polygon
   id="polygon306"
   points="378.2,299.2 564.6,299.2 566.9,289.6 565.8,253.6 564.6,258.8 375.8,258.8 "
   class="st33" />
	<polygon
   id="polygon308"
   points="563.5,172.7 418.1,172.7 375.8,258.8 564.6,258.8 565.8,253.6 "
   class="st34" />
</g>
<g
   transform="translate(0,45.366815)"
   class="st0"
   id="freshA40">
	<polygon
   id="polygon311"
   points="378.9,297.3 565.2,297 566.3,290.4 565.3,238.7 564.1,243.7 375.3,243.7 "
   class="st33" />
	<polygon
   id="polygon313"
   points="563,160.1 417.6,160.1 375.3,243.7 564.1,243.7 565.3,238.7 "
   class="st34" />
</g>
<g
   transform="translate(0,45.366815)"
   class="st0"
   id="freshA50">
	<polygon
   id="polygon316"
   points="379,297.3 565.2,296.5 566.2,291.4 564.2,223.8 563.1,228.7 374.2,228.7 "
   class="st33" />
	<polygon
   id="polygon318"
   points="561.9,147.4 416.5,147.4 374.2,228.7 563.1,228.7 564.2,223.8 "
   class="st34" />
</g>
<g
   transform="translate(0,45.366815)"
   class="st0"
   id="freshA60">
	<polygon
   id="polygon321"
   points="379.1,297 564.8,296.6 566.1,290.8 563.3,209.6 562.1,214.4 373.2,214.4 "
   class="st33" />
	<polygon
   id="polygon323"
   points="560.9,134.9 415.5,134.9 373.2,214.4 562.1,214.4 563.3,209.6 "
   class="st34" />
</g>
<g
   transform="translate(0,45.366815)"
   class="st0"
   id="freshA70">
	<polygon
   id="polygon326"
   points="379.3,297.5 564.9,296.3 566.3,291.9 564.1,197.5 560.9,202 372.1,202 "
   class="st33" />
	<polygon
   id="polygon328"
   points="561.6,122.2 415.7,122.2 372.1,202 560.9,202 564.1,197.5 "
   class="st34" />
</g>
<g
   transform="translate(0,45.366815)"
   class="st0"
   id="freshA80">
	<polygon
   id="polygon331"
   points="379.1,297.2 565.2,296.7 566.4,287.1 562.8,182.3 559.7,186.7 370.8,186.7 "
   class="st33" />
	<polygon
   id="polygon333"
   points="560.4,108.9 414.4,108.9 370.8,186.7 559.7,186.7 562.8,182.3 "
   class="st34" />
</g>
<g
   transform="translate(0,45.366815)"
   class="st0"
   id="freshA90">
	<polygon
   id="polygon336"
   points="379.3,297.3 565,296.7 566.5,288.1 561.4,162.3 560.8,166.7 369.4,166.7 "
   class="st33" />
	<polygon
   id="polygon338"
   points="560.4,88.9 414.1,88.9 369.4,166.7 560.8,166.7 561.4,162.3 "
   class="st34" />
</g>
<g
   transform="translate(0,45.366815)"
   class="st0"
   id="freshA100">
	<polygon
   id="polygon341"
   points="378.6,297.2 565,296.6 566.5,262 561.4,140.9 560.7,145.1 367.5,145.1 "
   class="st33" />
	<polygon
   id="polygon343"
   points="560.7,145.1 561.4,140.9 560.6,89.9 566.7,70.3 412.7,70.3 367.5,145.1 "
   class="st34" />
</g>
<g
   transform="translate(0,45.366815)"
   class="st0"
   id="freshB10">
	<polygon
   id="polygon346"
   points="247.3,285.5 59.9,285.3 140.3,198.7 305,198.1 "
   class="st34" />
	<polygon
   id="polygon348"
   points="62.1,297.5 248.6,297.7 306.1,209 305,198.1 247.3,285.5 59.9,285.3 "
   class="st33" />
</g>
<g
   transform="translate(0,45.366815)"
   class="st0"
   id="freshB20">
	<polygon
   id="polygon351"
   points="246.5,271.8 58.9,271.6 139.3,186.3 304.3,185.7 "
   class="st34" />
	<polygon
   id="polygon353"
   points="62.1,297.1 248.6,297.2 306.1,208.6 304.3,185.7 246.5,271.8 58.9,271.6 "
   class="st33" />
</g>
<g
   transform="translate(0,45.366815)"
   class="st0"
   id="freshB30">
	<polygon
   id="polygon356"
   points="244.8,256.8 56.8,256.7 138.4,173.8 302.7,173.2 "
   class="st34" />
	<polygon
   id="polygon358"
   points="62.1,297.1 248.6,297.2 306.1,208.6 302.7,173.2 244.8,256.8 56.8,256.7 "
   class="st33" />
</g>
<g
   transform="translate(0,45.366815)"
   class="st0"
   id="freshB40">
	<polygon
   id="polygon361"
   points="243.8,242.7 55.7,242.5 137.3,160.9 302.7,160.3 "
   class="st34" />
	<polygon
   id="polygon363"
   points="62.1,297.1 248.6,297.2 306.1,208.6 302.7,160.3 243.8,242.7 55.7,242.5 "
   class="st33" />
</g>
<g
   transform="translate(0,45.366815)"
   class="st0"
   id="freshB50">
	<polygon
   id="polygon366"
   points="297.2,148.1 135.6,148.6 54,228.6 242.3,228.7 297.2,152.4 "
   class="st34" />
	<polygon
   id="polygon368"
   points="248.6,297.2 306.1,208.6 301.1,156.4 297.2,156.4 297.2,152.4 242.3,228.7 54,228.6 62.1,297.1 "
   class="st33" />
</g>
<g
   transform="translate(0,45.366815)"
   class="st0"
   id="freshB60">
	<polygon
   id="polygon371"
   points="241.5,213.6 52.9,213.4 133.8,135.5 299.5,134.9 "
   class="st34" />
	<polygon
   id="polygon373"
   points="52.9,213.4 62.1,297.1 248.6,297.2 306.1,208.6 301.4,156.4 297.2,156.4 297.2,147.7 300.3,143.6 299.5,134.9 241.5,213.6 "
   class="st33" />
</g>
<g
   transform="translate(0,45.366815)"
   class="st0"
   id="freshB70">
	<polygon
   id="polygon376"
   points="51.5,198.9 62.1,297.1 248.6,297.2 306.1,208.6 302.1,156.4 297.2,156.4 297.2,147.7 301,142.6 299.4,122 241,199.1 "
   class="st33" />
	<path
   id="path378"
   d="m 251,122.2 v 0 c 0,1.8 -1.7,5.7 -4.6,5.7 -2.9,0 -3.4,0 -3.4,0 v -4.7 c 0,0 2.2,0 2.7,0 0.2,0 0.5,-0.4 0.7,-1 L 132.7,122.6 51.4,199 241,199.1 299.4,122 Z"
   class="st34" />
</g>
<g
   transform="translate(0,45.366815)"
   class="st0"
   id="freshB80">
	<polygon
   id="polygon381"
   points="48.1,177.8 62.1,297.1 248.6,297.2 306.1,208.6 301.7,156.4 297.2,156.4 297.2,147.7 300.6,143.2 297.2,103.2 238.6,177.9 "
   class="st33" />
	<path
   id="path383"
   d="m 249.4,103.3 c 0.1,4.2 0.3,8.7 0.5,11 0.2,4 0.4,6.6 0.4,6.6 0,0 0.8,-0.4 0.8,1.3 0,1.7 -1.7,5.6 -4.6,5.6 -2.9,0 -3.4,0 -3.4,0 v -4.7 c 0,0 2.2,0 2.7,0 0.5,0 1.1,-2 1.1,-3.8 0,-1.8 -1.1,-13.3 -1.3,-15.9 v -0.1 l -115.9,0.4 -81.7,74.1 190.5,0.1 58.7,-74.8 z"
   class="st34" />
</g>
<g
   transform="translate(0,45.366815)"
   class="st0"
   id="freshB90">
	<polygon
   id="polygon386"
   points="44.7,155.4 62.1,297.1 248.6,297.2 306.1,208.6 301.7,156.4 297.2,156.4 297.2,147.7 300.6,143.2 295.7,85.8 236,155.6 "
   class="st33" />
	<path
   id="path388"
   d="m 251.2,86 c -1,2.6 -1.8,6.4 -1.9,9.4 -0.2,4.3 0.3,15 0.5,18.9 0.2,4 0.4,6.6 0.4,6.6 0,0 0.8,-0.4 0.8,1.3 0,1.7 -1.7,5.6 -4.6,5.6 -2.9,0 -3.4,0 -3.4,0 v -4.7 c 0,0 2.2,0 2.7,0 0.5,0 1.1,-2 1.1,-3.8 0,-1.8 -1.1,-13.3 -1.3,-15.9 -0.1,-2.2 -0.2,-11.6 1.7,-17.5 l -118.2,0.4 -84.4,69.1 191.3,0.1 59.7,-69.7 z"
   class="st34" />
</g>
<g
   transform="translate(0,45.366815)"
   class="st0"
   id="freshB100">
	<g
   id="g395"
   class="st14">
		<path
   id="path391"
   d="m 295.1,73.8 h -8.2 l 0.2,4 h 0.7 c 0,0 0.3,6.6 -4.3,6.6 h -3 v -4.5 c 0,0 1.1,0 1.9,0 0.7,0 1.7,-0.8 1.7,-2.2 0,-0.7 0,-2.3 0,-3.8 l -23,0.1 c -3.1,3.5 -7.5,8.6 -8.5,9.6 -1.4,1.6 -3.1,7.5 -3.2,11.8 -0.2,4.3 0.3,15 0.5,18.9 0.2,4 0.4,6.6 0.4,6.6 0,0 0.8,-0.4 0.8,1.3 0,0.7 -0.2,1.6 -0.7,2.5 z"
   class="st35" />
		<path
   id="path393"
   d="m 246.4,127.8 c -2.9,0 -3.4,0 -3.4,0 v -4.7 c 0,0 2.2,0 2.7,0 0.5,0 1.1,-2 1.1,-3.8 0,-1.8 -1.1,-13.3 -1.3,-15.9 -0.2,-2.6 -0.3,-15.2 2.9,-20.2 1.5,-2.3 4.4,-6 7.1,-9.3 l -127.8,0.4 -86,68.8 192.3,0.1 13.9,-15.8 c -0.4,0.3 -0.9,0.4 -1.5,0.4 z"
   class="st35" />
	</g>
	<path
   id="path397"
   d="m 297.2,156.4 v -8.7 l 3.5,-4.7 -5.6,-69.2 -44.7,50.9 c -0.5,1.1 -1.3,2.2 -2.4,2.7 l -13.9,15.8 -192.3,-0.1 20.3,153.9 186.6,0.2 57.4,-88.6 -4.3,-52.2 z"
   class="st33" />
</g>

<g
   transform="translate(2.2469158,-34.773183)"
   id="filterLabel">
	<text
   id="text403"
   class="st37 st38 st39"
   transform="translate(908.2389,65.7736)">Filter</text>
</g>
<g
   transform="translate(19.473271,-34.773183)"
   id="filterValue">
	<text
   id="text406"
   class="st37 st38 st40"
   transform="translate(883.3795,85.021)">59.30 gal</text>
</g>
<g
   transform="translate(0,45.366815)"
   id="ClarifierBg">
	<rect
   id="rect409"
   height="20.4"
   width="85.400002"
   class="st36"
   y="17.9"
   x="993.40002" />
</g>
<g
   transform="translate(0,45.366815)"
   id="ClarifierLabel">
	<text
   id="text412"
   class="st37 st38 st39"
   transform="translate(1007.3381,33.8726)">Clarifier</text>
</g>
<g
   transform="translate(0,45.366815)"
   id="BioreactorBg">
	<rect
   id="rect415"
   height="20.4"
   width="85.400002"
   class="st36"
   y="17.9"
   x="1174.2" />
</g>
<g
   transform="translate(0,45.366815)"
   id="BioreactorLabel">
	<text
   id="text418"
   class="st37 st38 st39"
   transform="translate(1178.2183,33.8726)">Bioreactor</text>
</g>

<g
   transform="translate(2.9958878,41.621959)"
   id="InfluentLabel">
	<text
   id="text424"
   class="st37 st38 st39"
   transform="translate(1403.8345,76.8726)">Influent</text>
</g>
<g
   transform="translate(0.74897191,41.621961)"
   id="InfluentValue">
	<text
   id="text427"
   class="st37 st38 st40"
   transform="translate(1404.9385,100.8725)">283.49 gal</text>
</g>
<g
   transform="translate(0,45.366815)"
   id="UVLightBg">
	<rect
   id="rect430"
   height="24"
   width="79.900002"
   class="st36"
   y="133.5"
   x="800.29999" />
</g>
<g
   transform="translate(0,45.366815)"
   id="UVLightLabel">
	<text
   id="text433"
   class="st37 st38 st39"
   transform="translate(808.8359,150.8725)">UV Light</text>
</g>
<g
   transform="translate(0,45.366815)"
   id="ChlorinatorBg">
	<rect
   id="rect436"
   height="24"
   width="94.199997"
   class="st36"
   y="184.10001"
   x="793.09998" />
</g>
<g
   transform="translate(0,45.366815)"
   id="ChlorinatorLabel">
	<text
   id="text439"
   class="st37 st38 st39"
   transform="translate(799.0759,200.8725)">Chlorinator</text>
</g>

<g
   transform="translate(-7.4897196,-34.024211)"
   id="TransferLabel">
	<text
   id="text445"
   class="st37 st38 st39"
   transform="translate(719.9946,65.7737)">Transfer</text>
</g>
<g
   transform="translate(13.481495,-34.024211)"
   id="TransferValue">
	<text
   id="text448"
   class="st37 st38 st40"
   transform="translate(699.901,85.0211)">403.49 gal</text>
</g>
<g
   transform="translate(0,45.366815)"
   id="WashwaterBg">
	<rect
   id="rect451"
   height="24"
   width="107.7"
   class="st36"
   y="94.5"
   x="586.79999" />
</g>
<g
   transform="translate(0,45.366815)"
   id="WashwaterLabel">
	<text
   id="text454"
   class="st37 st38 st39"
   transform="translate(596.5278,112.12)">Wash water</text>
</g>

<g
   transform="translate(-16.477383,17.654853)"
   id="FreshwaterLabel">
	<text
   id="text460"
   class="st37 st38 st39"
   transform="translate(305.6049,13.8726)">Fresh water</text>
</g>
<g
   transform="translate(4.4938315,16.905881)"
   id="FreshwaterValue">
	<text
   id="text463"
   class="st37 st38 st40"
   transform="translate(295.4528,33.8726)">1205.00 gal</text>
</g>
<g
   transform="matrix(0.81918969,0,0,1,224.90705,24.998588)"
   id="WashwaterBg-7"><rect
     x="586.79999"
     y="94.5"
     class="st36"
     width="107.7"
     height="24"
     id="rect451-2" /></g><g
   transform="translate(119.55653,24.998588)"
   id="WashwaterLabel-6"><text
     transform="translate(596.5278,112.12)"
     class="st37 st38 st39"
     id="text454-8">Transfer</text></g><g
   id="WashwaterBg-7-4"
   transform="matrix(0.68010483,0,0,1,492.26709,24.249617)"><rect
     id="rect451-2-5"
     height="24"
     width="107.7"
     class="st36"
     y="94.5"
     x="586.79999" /></g><g
   id="WashwaterLabel-6-9"
   transform="translate(289.57317,24.249617)" /><g
   id="filterLabel-7"
   transform="translate(-0.66213064,70.203607)"><text
     transform="translate(908.2389,65.7736)"
     class="st37 st38 st39"
     id="text403-7">Filter</text></g></svg>
