<?xml version="1.0" encoding="utf-8"?>
<!-- Generator: Adobe Illustrator 24.1.1, SVG Export Plug-In . SVG Version: 6.00 Build 0)  -->
<svg version="1.1" id="Layer_1" xmlns="http://www.w3.org/2000/svg" xmlns:xlink="http://www.w3.org/1999/xlink" x="0px" y="0px"
	 viewBox="0 0 1518 332" style="enable-background:new 0 0 1518 332;" xml:space="preserve">
<style type="text/css">
	.st0{display:none;}
	.st1{display:inline;opacity:0.5;fill:#4E2A0E;enable-background:new    ;}
	.st2{display:inline;opacity:0.5;fill:#623A1D;enable-background:new    ;}
	.st3{display:none;opacity:0.5;}
	.st4{display:inline;fill:#4E2A0E;}
	.st5{display:inline;opacity:0.5;}
	.st6{fill:#4E2A0E;}
	.st7{display:inline;opacity:0.5;fill:url(#SVGID_1_);enable-background:new    ;}
	.st8{display:inline;opacity:0.5;fill:url(#SVGID_2_);enable-background:new    ;}
	.st9{display:inline;opacity:0.5;fill:url(#SVGID_3_);enable-background:new    ;}
	.st10{display:inline;opacity:0.5;fill:url(#SVGID_4_);enable-background:new    ;}
	.st11{display:inline;opacity:0.5;fill:url(#SVGID_5_);enable-background:new    ;}
	.st12{display:inline;opacity:0.5;fill:url(#SVGID_6_);enable-background:new    ;}
	.st13{display:inline;opacity:0.5;fill:url(#SVGID_7_);enable-background:new    ;}
	.st14{display:inline;}
	.st15{opacity:0.5;fill:url(#SVGID_8_);enable-background:new    ;}
	.st16{opacity:0.5;fill:url(#SVGID_9_);enable-background:new    ;}
	.st17{opacity:0.5;fill:url(#SVGID_10_);enable-background:new    ;}
	.st18{opacity:0.5;fill:url(#SVGID_11_);enable-background:new    ;}
	.st19{display:inline;opacity:0.5;fill:url(#SVGID_12_);enable-background:new    ;}
	.st20{display:inline;opacity:0.5;fill:#006C63;enable-background:new    ;}
	.st21{display:inline;opacity:0.5;fill:url(#SVGID_13_);enable-background:new    ;}
	.st22{display:inline;opacity:0.5;fill:url(#SVGID_14_);enable-background:new    ;}
	.st23{display:inline;opacity:0.5;fill:url(#SVGID_15_);enable-background:new    ;}
	.st24{display:inline;opacity:0.5;fill:url(#SVGID_16_);enable-background:new    ;}
	.st25{display:inline;opacity:0.5;fill:url(#SVGID_17_);enable-background:new    ;}
	.st26{display:inline;opacity:0.5;fill:url(#SVGID_18_);enable-background:new    ;}
	.st27{display:inline;opacity:0.5;fill:url(#SVGID_19_);enable-background:new    ;}
	.st28{display:inline;opacity:0.5;fill:url(#SVGID_20_);enable-background:new    ;}
	.st29{display:inline;opacity:0.5;enable-background:new    ;}
	.st30{fill:url(#SVGID_21_);}
	.st31{fill:url(#SVGID_22_);}
	.st32{display:inline;opacity:0.5;fill:url(#SVGID_23_);enable-background:new    ;}
	.st33{display:inline;opacity:0.5;fill:#0063B0;enable-background:new    ;}
	.st34{display:inline;opacity:0.5;fill:#002B7F;enable-background:new    ;}
	.st35{opacity:0.5;fill:#002B7F;enable-background:new    ;}
	.st36{opacity:0.5;fill:#606060;enable-background:new    ;}
	.st37{fill:#F0EFEF;}
	.st38{font-family:'ArialMT';}
	.st39{font-size:16px;}
	.st40{font-size:20px;}
</style>
<g id="bg">
	<image style="overflow:visible;" width="1817" height="380" transform="matrix(0.8343 0 0 0.8343 0 12)" xlink:href="tankSvg-image.png">
	</image>
</g>
<g id="influent10" class="st0">
	<path class="st1" d="M1378,276.2c0,0,111.6,0,116.1,0s4.3-3.9,0-8s-37.2-33.9-41-36.8s-6.2-6.5-15.4-6.5s-53.9,0-53.9,0L1378,276.2
		z"/>
	<path class="st2" d="M1497.3,274.1c-0.1,1.3-1.2,2.1-3.3,2.1c-4.5,0-116.1,0-116.1,0l-1.6,12.6c0,0,102.9,0,112,0s7.7-3.1,8-4.6
		C1496.7,282.7,1497.4,274.1,1497.3,274.1L1497.3,274.1z"/>
</g>
<g id="influent20" class="st3">
	<path class="st1" d="M1381.6,263.5c0,0,110.5,0,115,0s4.4-3.9,0-8s-37.5-33.9-41.4-36.8c-3.8-2.9-6.3-6.5-15.5-6.5s-51.9,0-51.9,0
		L1381.6,263.5z"/>
	<path class="st4" d="M1496.6,263.5c-4.5,0-115,0-115,0l-2.9,25.3c0,0,108.6,0,112.1,0s5.7-1.9,6.1-4.3s3-22.9,3-22.9l0,0
		C1499.7,262.8,1498.6,263.5,1496.6,263.5z"/>
</g>
<g id="influent30" class="st0">
	<path class="st1" d="M1383.3,251.4c0,0,110.4,0,115,0s4.4-3.8,0-7.7s-37.4-32.7-41.3-35.5c-3.8-2.8-6.2-6.2-15.5-6.2
		c-9.2,0-52.4,0-52.4,0L1383.3,251.4z"/>
	<path class="st1" d="M1498.2,251.4c-4.5,0-113.3,0-114.9,0l-4.6,37.4c0,0,106,0,111.1,0s7-2.8,7.2-4.8c0.3-1.9,4.5-34.2,4.5-34.4
		C1501.2,250.7,1500.1,251.4,1498.2,251.4z"/>
</g>
<g id="influent40" class="st0">
	<path class="st1" d="M1384.2,240c0,0,110.9,0,115.5,0s4.4-3.8,0-7.7s-37.6-32.7-41.4-35.5s-6.3-6.2-15.5-6.2s-52.6,0-52.6,0
		L1384.2,240z"/>
	<g class="st5">
		<path class="st6" d="M1503,238c0-0.1,0-0.2,0-0.2l0,0C1503,237.9,1503,237.9,1503,238z"/>
		<path class="st6" d="M1499.7,240c-4.5,0-115.5,0-115.5,0l-5.5,48.8c0,0,108.9,0,112.4,0s5.5-1.9,5.9-5.2
			c0.4-3.1,5.4-41.3,5.9-45.4C1502.7,239.3,1501.6,240,1499.7,240z"/>
	</g>
</g>
<g id="influent50" class="st0">
	<path class="st1" d="M1385.6,228.8c0,0,111.2,0,115.7,0c1.9,0,2.9-0.6,3.3-1.6c0.5-1.5-0.7-3.7-3.3-6.1
		c-4.4-3.9-37.7-32.7-41.5-35.5c-3.9-2.8-6.3-6.2-15.6-6.2c-9.3,0-52.7,0-52.7,0L1385.6,228.8z"/>
	<path class="st1" d="M1501.3,228.8c-4.6,0-115.7,0-115.7,0l-6.7,60c0,0,107.2,0,110.4,0s7.1-1.1,7.5-4.6c0.4-3.4,7.7-57,7.7-57
		C1504.2,228.2,1503.2,228.8,1501.3,228.8z"/>
</g>
<g id="influent60" class="st0">
	<path class="st1" d="M1387.2,216.8c0,0,111.2,0,115.7,0c1.9,0,2.9-0.6,3.3-1.6c0.5-1.5-0.7-3.8-3.3-6.1c-4.4-4-37.7-32.8-41.5-35.6
		s-6.3-6.3-15.6-6.3s-52.7,0-52.7,0L1387.2,216.8z"/>
	<path class="st1" d="M1502.9,216.8c-4.6,0-115.7,0-115.7,0l-8.3,72c0,0,105.2,0,110.4,0c5.2,0,6.9-2.3,7.7-7.3
		c0.8-5,9.1-66.4,9.1-66.4C1505.8,216.1,1504.7,216.8,1502.9,216.8z"/>
</g>
<g id="influent70" class="st0">
	<path class="st1" d="M1388.5,204.7c0,0,111.5,0,116.1,0c1.9,0,3-0.6,3.3-1.6c0.5-1.5-0.7-3.7-3.3-6c-4.4-3.9-38.2-32.4-42.1-35.2
		s-6.4-6.2-15.8-6.2s-52.2,0-52.2,0L1388.5,204.7z"/>
	<path class="st1" d="M1504.6,204.7c-4.6,0-116.1,0-116.1,0l-9.7,84.1c0,0,107.1,0,111.7,0s5.7-2.6,6.3-6.2c0.6-3.7,11-79.6,11-79.6
		C1507.6,204,1506.5,204.7,1504.6,204.7z"/>
</g>
<g id="influent80" class="st0">
	<path class="st1" d="M1389.9,192.1c0,0,111.9,0,116.5,0c1.9,0,3-0.6,3.3-1.6c0.5-1.4-0.7-3.6-3.3-5.9c-4.5-3.8-38.3-31.8-42.2-34.5
		c-3.9-2.7-6.4-6.1-15.8-6.1c-9.5,0-52.4,0-52.4,0L1389.9,192.1z"/>
	<path class="st1" d="M1506.4,192.1c-4.6,0-116.5,0-116.5,0l-10.8,96.7c0,0,102,0,108.4,0c6.5,0,8.6-2.8,9.4-6.9
		s12.8-91.4,12.8-91.4C1509.4,191.5,1508.3,192.1,1506.4,192.1z"/>
</g>
<g id="influent90" class="st0">
	<path class="st1" d="M1391.8,179.7c0,0,111.9,0,116.5,0c1.9,0,3-0.6,3.3-1.6c0.5-1.4-0.7-3.5-3.3-5.8c-4.5-3.7-38.3-31-42.2-33.6
		c-3.9-2.6-6.4-5.9-15.8-5.9c-9.5,0-52.4,0-52.4,0L1391.8,179.7z"/>
	<path class="st1" d="M1508.3,179.7c-4.6,0-116.5,0-116.5,0l-13.3,109.1c0,0,106.3,0,111.4,0c5.2,0,6.5-2.9,7-6.3
		s14.6-104.4,14.6-104.4C1511.3,179.1,1510.2,179.7,1508.3,179.7z"/>
</g>
<g id="influent100" class="st0">
	<path class="st1" d="M1393.7,166.3c0,0,111.9,0,116.5,0c1.9,0,3-0.6,3.3-1.5c0.5-1.4-0.7-3.5-3.3-5.6c-4.5-3.6-38.3-30.1-42.2-32.7
		c-3.9-2.6-6.4-5.8-15.8-5.8c-9.5,0-52.4,0-52.4,0L1393.7,166.3z"/>
	<path class="st1" d="M1510.2,166.3c-4.6,0-116.5,0-116.5,0l-14.8,122.5c0,0,104.7,0,110.7,0s7.1-4,7.4-6.4s16.5-117.7,16.5-117.7
		C1513.2,165.7,1512.1,166.3,1510.2,166.3z"/>
</g>
<g id="filter10" class="st0">
	
		<ellipse transform="matrix(2.217839e-02 -0.9998 0.9998 2.217839e-02 748.7032 1084.7678)" class="st2" cx="928.9" cy="159.6" rx="9.3" ry="36"/>
	
		<linearGradient id="SVGID_1_" gradientUnits="userSpaceOnUse" x1="928.9491" y1="159.8916" x2="928.9491" y2="175.1205" gradientTransform="matrix(1 0 0 -1 0 334)">
		<stop  offset="0" style="stop-color:#0D988C"/>
		<stop  offset="1" style="stop-color:#794A2C"/>
	</linearGradient>
	<path class="st7" d="M964.9,160.5c-0.1,5.2-16.4,9-36.2,8.5c-19.9-0.4-35.9-5-35.7-10.2v5c-0.1,5.2,15.9,9.7,35.7,10.2
		c19.9,0.4,36.1-3.4,36.2-8.5V160.5z"/>
</g>
<g id="filter20" class="st0">
	
		<ellipse transform="matrix(2.217839e-02 -0.9998 0.9998 2.217839e-02 753.7308 1079.7762)" class="st2" cx="928.9" cy="154.6" rx="9.3" ry="36"/>
	
		<linearGradient id="SVGID_2_" gradientUnits="userSpaceOnUse" x1="928.9491" y1="159.9586" x2="928.9491" y2="180.1875" gradientTransform="matrix(1 0 0 -1 0 334)">
		<stop  offset="0" style="stop-color:#0D988C"/>
		<stop  offset="1" style="stop-color:#794A2C"/>
	</linearGradient>
	<path class="st8" d="M964.9,155.4c-0.1,5.2-16.4,9-36.2,8.5c-19.9-0.4-35.9-5-35.7-10.2v10c-0.1,5.2,15.9,9.7,35.7,10.2
		c19.9,0.4,36.1-3.4,36.2-8.5V155.4z"/>
</g>
<g id="filter30" class="st0">
	
		<ellipse transform="matrix(2.217839e-02 -0.9998 0.9998 2.217839e-02 758.8539 1074.8866)" class="st2" cx="928.9" cy="149.5" rx="9.3" ry="36"/>
	
		<linearGradient id="SVGID_3_" gradientUnits="userSpaceOnUse" x1="928.9491" y1="159.9587" x2="928.9491" y2="185.2535" gradientTransform="matrix(1 0 0 -1 0 334)">
		<stop  offset="0" style="stop-color:#0D988C"/>
		<stop  offset="1" style="stop-color:#794A2C"/>
	</linearGradient>
	<path class="st9" d="M964.9,150.4c-0.1,5.2-16.4,9-36.2,8.5c-19.9-0.4-35.9-5-35.7-10.2V163c-0.1,5.6,15.9,10.5,35.7,11
		c19.9,0.5,36.1-3.6,36.2-9.2V150.4z"/>
</g>
<g id="filter40" class="st0">
	
		<ellipse transform="matrix(2.217839e-02 -0.9998 0.9998 2.217839e-02 763.8815 1069.895)" class="st2" cx="928.9" cy="144.4" rx="9.3" ry="36"/>
	
		<linearGradient id="SVGID_4_" gradientUnits="userSpaceOnUse" x1="928.9491" y1="159.1267" x2="928.9491" y2="190.3065" gradientTransform="matrix(1 0 0 -1 0 334)">
		<stop  offset="0" style="stop-color:#0D988C"/>
		<stop  offset="1" style="stop-color:#794A2C"/>
	</linearGradient>
	<path class="st10" d="M964.9,145.3c-0.1,5.2-16.4,9-36.2,8.5s-35.9-5-35.7-10.2v20.2c-0.1,5.6,15.9,10.5,35.7,11
		c19.9,0.5,36.1-3.6,36.2-9.2V145.3z"/>
</g>
<g id="filter50" class="st0">
	
		<ellipse transform="matrix(2.217839e-02 -0.9998 0.9998 2.217839e-02 768.9091 1064.9034)" class="st2" cx="928.8" cy="139.4" rx="9.3" ry="36"/>
	
		<linearGradient id="SVGID_5_" gradientUnits="userSpaceOnUse" x1="928.9491" y1="159.1587" x2="928.9491" y2="195.4022" gradientTransform="matrix(1 0 0 -1 0 334)">
		<stop  offset="0" style="stop-color:#0D988C"/>
		<stop  offset="1" style="stop-color:#794A2C"/>
	</linearGradient>
	<path class="st11" d="M964.9,140.2c-0.1,5.2-16.4,9-36.2,8.5c-19.9-0.4-35.9-5-35.7-10.2v25.3c-0.1,5.6,15.9,10.5,35.7,11
		c19.9,0.5,36.1-3.6,36.2-9.2V140.2z"/>
</g>
<g id="filter60" class="st0">
	<path class="st2" d="M959.3,133.6c-7.1-2.8-9-3.8-9.1-6.3c-5.9-1.3-13.2-2.1-21.1-2.3c-19.9-0.4-36.1,3.4-36.2,8.5
		c-0.1,5.2,15.9,9.7,35.7,10.2c19.9,0.4,36.1-3.4,36.2-8.5c0-0.1,0-0.1,0-0.2C963,134.8,961.1,134.3,959.3,133.6z"/>
	
		<linearGradient id="SVGID_6_" gradientUnits="userSpaceOnUse" x1="928.8491" y1="159.1587" x2="928.8491" y2="200.5" gradientTransform="matrix(1 0 0 -1 0 334)">
		<stop  offset="0" style="stop-color:#0D988C"/>
		<stop  offset="1" style="stop-color:#794A2C"/>
	</linearGradient>
	<path class="st12" d="M928.6,143.7c-19.9-0.4-35.9-5-35.7-10.2v30.3c-0.1,5.6,15.9,10.5,35.7,11c19.9,0.5,36.1-3.6,36.2-9.2v-30.4
		C964.7,140.3,948.5,144.2,928.6,143.7z"/>
</g>
<g id="filter70" class="st0">
	<path class="st2" d="M959.3,133.6c-7.2-2.9-9.1-3.8-9.1-6.4s2.6-4.9,4.9-3.6c2.1,1.1,4.9,2.8,8.3,3.3c-5-3.7-18.1-6.5-33.6-6.9
		c-19.9-0.4-36.1,3.4-36.2,8.5c-0.1,5.2,15.9,9.7,35.7,10.2c14,0.3,26.1-1.5,32.2-4.4C960.7,134.1,960,133.8,959.3,133.6z"/>
	
		<linearGradient id="SVGID_7_" gradientUnits="userSpaceOnUse" x1="929.0998" y1="159.1267" x2="929.0998" y2="205.4976" gradientTransform="matrix(1 0 0 -1 0 334)">
		<stop  offset="0" style="stop-color:#0D988C"/>
		<stop  offset="1" style="stop-color:#794A2C"/>
	</linearGradient>
	<path class="st13" d="M961.4,134.3c-6,2.9-18.2,4.7-32.2,4.4c-19.9-0.4-35.9-5-35.7-10.2l-0.6,35.4c-0.1,5.6,15.9,10.5,35.7,11
		c19.9,0.5,36.1-3.6,36.2-9.2l0.5-30.5C964.1,134.9,962.8,134.7,961.4,134.3z"/>
</g>
<g id="filter80" class="st0">
	<path class="st2" d="M950.2,127.2c0-2.6,2.6-4.9,4.9-3.6c2.2,1.2,5.2,3.1,8.9,3.4c0.2,0,0.5,0,0.7,0.1c0.5-0.6,0.8-1.3,0.8-1.9
		c0.1-5.2-15.9-9.7-35.7-10.2c-19.9-0.4-36.1,3.4-36.2,8.5c-0.1,5.2,15.9,9.7,35.7,10.2c9.8,0.2,18.6-0.6,25.1-2.1
		C951.2,130,950.2,129,950.2,127.2z"/>
	<g class="st14">
		
			<linearGradient id="SVGID_8_" gradientUnits="userSpaceOnUse" x1="929.1998" y1="159.1267" x2="929.1998" y2="210.568" gradientTransform="matrix(1 0 0 -1 0 334)">
			<stop  offset="0" style="stop-color:#0D988C"/>
			<stop  offset="1" style="stop-color:#794A2C"/>
		</linearGradient>
		<path class="st15" d="M959.3,133.6c-2-0.8-3.6-1.5-4.9-2c-6.5,1.5-15.4,2.3-25.1,2.1c-19.9-0.4-35.9-5-35.7-10.2l-0.6,40.4
			c-0.1,5.6,15.9,10.5,35.7,11c19.9,0.5,36.1-3.6,36.2-9.2l0.5-30.5C963.4,134.8,961.3,134.4,959.3,133.6z"/>
		
			<linearGradient id="SVGID_9_" gradientUnits="userSpaceOnUse" x1="965.1" y1="206.9835" x2="965.1" y2="208.9455" gradientTransform="matrix(1 0 0 -1 0 334)">
			<stop  offset="0" style="stop-color:#0D988C"/>
			<stop  offset="1" style="stop-color:#794A2C"/>
		</linearGradient>
		<path class="st16" d="M965.5,127v-2c0,0.7-0.3,1.3-0.8,1.9C964.9,127,965.2,127,965.5,127z"/>
	</g>
</g>
<g id="filter90" class="st0">
	<path class="st2" d="M950.2,127.2c0-2.6,2.6-4.9,4.9-3.6c1,0.5,2.1,1.2,3.4,1.8c4.4-1.4,7-3.3,7-5.3c0.1-5.2-15.9-9.7-35.7-10.2
		c-19.9-0.4-36.1,3.4-36.2,8.5c-0.1,5.2,15.9,9.7,35.7,10.2C937.1,128.7,944.3,128.2,950.2,127.2L950.2,127.2z"/>
	<g class="st14">
		
			<linearGradient id="SVGID_10_" gradientUnits="userSpaceOnUse" x1="961.9" y1="206.986" x2="961.9" y2="214.0092" gradientTransform="matrix(1 0 0 -1 0 334)">
			<stop  offset="0" style="stop-color:#0D988C"/>
			<stop  offset="1" style="stop-color:#794A2C"/>
		</linearGradient>
		<path class="st17" d="M963.9,126.9c0.5,0,1,0.1,1.4,0.1l0.1-7c-0.1,2.1-2.7,3.9-7,5.3C960.1,126.1,961.9,126.7,963.9,126.9z"/>
		
			<linearGradient id="SVGID_11_" gradientUnits="userSpaceOnUse" x1="929.0498" y1="159.1267" x2="929.0498" y2="215.668" gradientTransform="matrix(1 0 0 -1 0 334)">
			<stop  offset="0" style="stop-color:#0D988C"/>
			<stop  offset="1" style="stop-color:#794A2C"/>
		</linearGradient>
		<path class="st18" d="M959.3,133.6c-7.1-2.8-9-3.8-9.1-6.3c-5.9,1-13.2,1.4-21,1.3c-19.9-0.4-35.9-5-35.7-10.2l-0.6,45.5
			c-0.1,5.6,15.9,10.5,35.7,11c19.9,0.5,36.1-3.6,36.2-9.2l0.4-30.5C963.3,134.8,961.3,134.4,959.3,133.6z"/>
	</g>
</g>
<g id="filter100" class="st0">
	
		<ellipse transform="matrix(2.217839e-02 -0.9998 0.9998 2.217839e-02 795.0458 1041.1558)" class="st2" cx="929.8" cy="114.1" rx="9.3" ry="36"/>
	
		<linearGradient id="SVGID_12_" gradientUnits="userSpaceOnUse" x1="929.4498" y1="159.4587" x2="929.4498" y2="220.7" gradientTransform="matrix(1 0 0 -1 0 334)">
		<stop  offset="0" style="stop-color:#0D988C"/>
		<stop  offset="1" style="stop-color:#794A2C"/>
	</linearGradient>
	<path class="st19" d="M959.3,133.6c-7.2-2.9-9.1-3.8-9.1-6.4s2.6-4.9,4.9-3.6c2.2,1.2,5.2,3.1,8.9,3.4c0.5,0,1,0.1,1.6,0.1
		l0.2-12.1c-0.1,5.2-16.4,9-36.2,8.5s-35.9-5-35.7-10.2l-0.8,50.2c-0.1,5.6,15.9,10.5,35.7,11c19.9,0.5,36.1-3.6,36.2-9.2l0.5-30.2
		C963.4,134.8,961.3,134.4,959.3,133.6z"/>
</g>
<g id="transfer10" class="st0">
	<path class="st20" d="M734.7,198.4c-7.9,0-15.4,0.5-22.2,1.5l0.5,33.6c6.7,0.9,14,1.4,21.7,1.4c30.8,0,55.7-8.2,55.7-18.3
		S765.4,198.4,734.7,198.4z"/>
	
		<linearGradient id="SVGID_13_" gradientUnits="userSpaceOnUse" x1="751.7" y1="117.3" x2="751.7" y2="90.1" gradientTransform="matrix(1 0 0 -1 0 334)">
		<stop  offset="0" style="stop-color:#0D988C"/>
		<stop  offset="1" style="stop-color:#0063B0"/>
	</linearGradient>
	<path class="st21" d="M734.7,235c-7.7,0-15-0.5-21.7-1.4v8.9c6.7,0.9,14,1.4,21.7,1.4c30.8,0,55.7-8.2,55.7-18.3v-8.9
		C790.4,226.8,765.4,235,734.7,235z"/>
</g>
<g id="transfer20" class="st0">
	<path class="st20" d="M734.7,189.3c-7.9,0-15.4,0.5-22.2,1.5l0.4,33.5c6.7,0.9,14.1,1.6,21.8,1.6c30.8,0,55.7-8.2,55.7-18.3
		S765.4,189.3,734.7,189.3z"/>
	
		<linearGradient id="SVGID_14_" gradientUnits="userSpaceOnUse" x1="751.65" y1="126.4" x2="751.65" y2="90.1" gradientTransform="matrix(1 0 0 -1 0 334)">
		<stop  offset="0" style="stop-color:#0D988C"/>
		<stop  offset="1" style="stop-color:#0063B0"/>
	</linearGradient>
	<path class="st22" d="M734.7,225.9c-7.7,0-15.2-0.6-21.8-1.6v18c6.7,0.9,14.1,1.6,21.8,1.6c30.8,0,55.7-8.2,55.7-18.3v-18
		C790.4,217.7,765.4,225.9,734.7,225.9z"/>
</g>
<g id="transfer30" class="st0">
	<path class="st20" d="M734.7,182.5c-7.9,0-15.4,0.5-22.2,1.4l0.5,31.7c6.7,0.9,14,1.4,21.7,1.4c30.8,0,55.7-7.7,55.7-17.3
		S765.4,182.5,734.7,182.5z"/>
	
		<linearGradient id="SVGID_15_" gradientUnits="userSpaceOnUse" x1="751.6" y1="134.3" x2="751.6" y2="90.1523" gradientTransform="matrix(1 0 0 -1 0 334)">
		<stop  offset="0" style="stop-color:#0D988C"/>
		<stop  offset="1" style="stop-color:#0063B0"/>
	</linearGradient>
	<path class="st23" d="M734.7,217c-7.7,0-15-0.5-21.7-1.4l-0.2,14.5l0.2,12.4c6.7,0.9,14,1.4,21.7,1.4c30.8,0,55.7-7.7,55.7-17.3
		v-26.9C790.4,209.3,765.4,217,734.7,217z"/>
</g>
<g id="transfer40" class="st0">
	<path class="st20" d="M734.7,176.3c-7.9,0-15.4,0.5-22.2,1.3l0.5,29.3c6.7,0.8,14,1.3,21.7,1.3c30.8,0,55.7-7.1,55.7-15.9
		S765.4,176.3,734.7,176.3z"/>
	
		<linearGradient id="SVGID_16_" gradientUnits="userSpaceOnUse" x1="751.45" y1="141.8" x2="751.45" y2="89.8609" gradientTransform="matrix(1 0 0 -1 0 334)">
		<stop  offset="0" style="stop-color:#0D988C"/>
		<stop  offset="1" style="stop-color:#0063B0"/>
	</linearGradient>
	<path class="st24" d="M734.7,208.2c-7.7,0-15-0.4-21.7-1.3v4.1c-0.2,0-0.3,0-0.5,0.1l0.5,31.7c6.7,0.9,14,1.4,21.7,1.4
		c30.8,0,55.7-7.7,55.7-17.3v-34.7C790.4,201,765.4,208.2,734.7,208.2z"/>
</g>
<g id="transfer50" class="st0">
	
		<linearGradient id="SVGID_17_" gradientUnits="userSpaceOnUse" x1="751.45" y1="149.6" x2="751.45" y2="89.8669" gradientTransform="matrix(1 0 0 -1 0 334)">
		<stop  offset="0" style="stop-color:#0D988C"/>
		<stop  offset="1" style="stop-color:#0063B0"/>
	</linearGradient>
	<path class="st25" d="M734.7,199c-7.7,0-15-0.4-21.7-1.1l-0.5,13.2l0.5,31.7c6.7,0.9,14,1.4,21.7,1.4c30.8,0,55.7-7.7,55.7-17.3
		v-42.5C790.4,192.5,765.4,199,734.7,199z"/>
	<path class="st20" d="M734.7,169.8c-2,0-3.9,0-5.8,0.1c-7.6,3.2-15.8,3-16.4,3l0.5,25c6.7,0.7,14,1.1,21.7,1.1
		c30.8,0,55.7-6.5,55.7-14.6S765.4,169.8,734.7,169.8z"/>
</g>
<g id="traansfer60" class="st0">
	
		<linearGradient id="SVGID_18_" gradientUnits="userSpaceOnUse" x1="751.45" y1="158.7889" x2="751.45" y2="89.7889" gradientTransform="matrix(1 0 0 -1 0 334)">
		<stop  offset="0" style="stop-color:#0D988C"/>
		<stop  offset="1" style="stop-color:#0063B0"/>
	</linearGradient>
	<path class="st26" d="M734.7,188.8c-7.7,0-15-0.4-21.7-1.1l-0.5,23.3l0.5,31.7c6.7,0.9,14,1.4,21.7,1.4c30.8,0,55.7-7.7,55.7-17.3
		v-51.7C790.4,182.7,765.4,188.8,734.7,188.8z"/>
	<path class="st20" d="M734.7,161.6c-7.9,0-15.4,0.4-22.2,1.1l0.1,6.5c13.7,0,19.9-4.9,19.9-4.9s1.9-1.6,2.9-0.4c1,1.2,0,2.1,0,2.1
		c-8.1,7-20.9,6.9-22.7,6.9l0.3,14.9c6.7,0.7,14,1.1,21.7,1.1c30.8,0,55.7-6.1,55.7-13.6C790.4,167.7,765.4,161.6,734.7,161.6z"/>
</g>
<g id="transfer70" class="st0">
	
		<linearGradient id="SVGID_19_" gradientUnits="userSpaceOnUse" x1="751.45" y1="166.89" x2="751.45" y2="89.79" gradientTransform="matrix(1 0 0 -1 0 334)">
		<stop  offset="0" style="stop-color:#0D988C"/>
		<stop  offset="1" style="stop-color:#0063B0"/>
	</linearGradient>
	<path class="st27" d="M734.7,180.7c-7.7,0-15-0.4-21.7-1.1l-0.5,31.4l0.5,31.7c6.7,0.9,14,1.4,21.7,1.4c30.8,0,55.7-7.7,55.7-17.3
		V167C790.4,174.6,765.4,180.7,734.7,180.7z"/>
	<path class="st20" d="M734.7,153.5c-7.9,0-15.4,0.4-22.2,1.1c0,0-3.3,0.3-4.6,0.9c0,0,4.8,5.8,4.8,7.9l0.1,5.8
		c13.6-0.1,19.7-4.9,19.7-4.9s1.9-1.6,2.9-0.4c1,1.2,0,2.1,0,2.1c-7.9,6.8-20.2,6.9-22.5,6.9l0.1,6.8c6.7,0.7,14,1.1,21.7,1.1
		c30.8,0,55.7-6.1,55.7-13.6C790.4,159.6,765.4,153.5,734.7,153.5z"/>
</g>
<g id="transfer80" class="st0">
	
		<linearGradient id="SVGID_20_" gradientUnits="userSpaceOnUse" x1="751.45" y1="173.3" x2="751.45" y2="89.8" gradientTransform="matrix(1 0 0 -1 0 334)">
		<stop  offset="0" style="stop-color:#0D988C"/>
		<stop  offset="1" style="stop-color:#0063B0"/>
	</linearGradient>
	<path class="st28" d="M734.7,174.4c-7.7,0-15-0.4-21.7-1.1l-0.5,37.8l0.5,31.7c6.7,0.9,14,1.4,21.7,1.4c30.8,0,55.7-7.7,55.7-17.3
		v-66.2C790.4,168.3,765.4,174.4,734.7,174.4z"/>
	<path class="st20" d="M734.7,147.1c-7.9,0-15.4,0.4-22.2,1.1c0,0-3.9,0.9-4.8,1.9v5.9c0,0,5.2,5.9,5.2,11.4v1.8
		c13.5-0.1,19.6-4.9,19.6-4.9s1.9-1.6,2.9-0.4c1,1.2,0,2.1,0,2.1c-7.8,6.7-19.8,6.9-22.4,6.9v0.4c6.7,0.7,14,1.1,21.7,1.1
		c30.8,0,55.7-6.1,55.7-13.6C790.4,153.2,765.4,147.1,734.7,147.1z"/>
</g>
<g id="transfer90" class="st0">
	<g class="st29">
		
			<linearGradient id="SVGID_21_" gradientUnits="userSpaceOnUse" x1="718.8" y1="167.1" x2="718.8" y2="164.7752" gradientTransform="matrix(1 0 0 -1 0 334)">
			<stop  offset="0" style="stop-color:#0D988C"/>
			<stop  offset="1" style="stop-color:#0063B0"/>
		</linearGradient>
		<path class="st30" d="M724.6,167.7c-4-0.2-7.9-0.5-11.6-0.8v2.3C717.7,169.2,721.6,168.5,724.6,167.7z"/>
		
			<linearGradient id="SVGID_22_" gradientUnits="userSpaceOnUse" x1="751.45" y1="179.7" x2="751.45" y2="89.8" gradientTransform="matrix(1 0 0 -1 0 334)">
			<stop  offset="0" style="stop-color:#0D988C"/>
			<stop  offset="1" style="stop-color:#0063B0"/>
		</linearGradient>
		<path class="st31" d="M734.7,168c-0.7,0-1.3,0-2,0c-7.7,4.8-17.6,5-19.8,4.9l-0.4,38.2l0.5,31.7c6.7,0.9,14,1.4,21.7,1.4
			c30.8,0,55.7-7.7,55.7-17.3v-72.6C790.4,161.9,765.4,168,734.7,168z"/>
	</g>
	<path class="st20" d="M734.7,140.7c-7.9,0-15.4,0.4-22.2,1.1c0,0-2.9,0.5-4.6,1.2v13c0,0,5.2,4.9,5.2,10.9
		c3.7,0.4,7.6,0.7,11.6,0.8c5.4-1.5,7.9-3.4,7.9-3.4s1.9-1.6,2.9-0.4c1,1.2,0,2.1,0,2.1c-0.8,0.7-1.8,1.4-2.7,2c0.7,0,1.3,0,2,0
		c30.8,0,55.7-6.1,55.7-13.6C790.4,146.8,765.4,140.7,734.7,140.7z"/>
</g>
<g id="transfer100" class="st0">
	<path class="st20" d="M734.7,134.3c-7.9,0-15.4,0.4-22.2,1.1c0,0-4.9,1-6.1,1.7l1.7,1.4v17c0,0,4.9,6.2,4.9,12.7l0.1-7.7
		c6.7,0.7,14,1.1,21.7,1.1c30.8,0,55.7-6.1,55.7-13.6C790.4,140.4,765.4,134.3,734.7,134.3z"/>
	
		<linearGradient id="SVGID_23_" gradientUnits="userSpaceOnUse" x1="712.5" y1="137.9" x2="790.4" y2="137.9" gradientTransform="matrix(1 0 0 -1 0 334)">
		<stop  offset="0" style="stop-color:#0D988C"/>
		<stop  offset="1" style="stop-color:#0063B0"/>
	</linearGradient>
	<path class="st32" d="M734.7,161.6c-7.7,0-15-0.4-21.7-1.1l-0.1,8.7c13.5-0.1,19.6-4.9,19.6-4.9s1.9-1.6,2.9-0.4c1,1.2,0,2.1,0,2.1
		c-7.9,6.8-20.2,6.9-22.5,6.9l-0.4,35.4l0.5,34.4c6.7,0.9,14,1.5,21.7,1.5c30.8,0,55.7-8.4,55.7-18.7V148
		C790.4,155.5,765.4,161.6,734.7,161.6z"/>
</g>
<g id="freshA10" class="st0">
	<polygon class="st33" points="566.5,278 565.2,283.7 377.6,283.7 377.6,299.2 565.2,299.2 566.9,291.5 	"/>
	<polygon class="st34" points="564.3,198.9 419.7,198.9 377.6,283.7 565.2,283.7 566.5,278 	"/>
</g>
<g id="freshA20" class="st0">
	<polygon class="st33" points="566.2,266.4 565.2,270.7 377.6,270.7 378.6,298 565.2,298 566.9,290.7 	"/>
	<polygon class="st34" points="563.8,184.6 419.7,184.6 377.6,270.7 565.2,270.7 566.2,266.4 	"/>
</g>
<g id="freshA30" class="st0">
	<polygon class="st33" points="565.8,253.6 564.6,258.8 375.8,258.8 378.2,299.2 564.6,299.2 566.9,289.6 	"/>
	<polygon class="st34" points="563.5,172.7 418.1,172.7 375.8,258.8 564.6,258.8 565.8,253.6 	"/>
</g>
<g id="freshA40" class="st0">
	<polygon class="st33" points="565.3,238.7 564.1,243.7 375.3,243.7 378.9,297.3 565.2,297 566.3,290.4 	"/>
	<polygon class="st34" points="563,160.1 417.6,160.1 375.3,243.7 564.1,243.7 565.3,238.7 	"/>
</g>
<g id="freshA50" class="st0">
	<polygon class="st33" points="564.2,223.8 563.1,228.7 374.2,228.7 379,297.3 565.2,296.5 566.2,291.4 	"/>
	<polygon class="st34" points="561.9,147.4 416.5,147.4 374.2,228.7 563.1,228.7 564.2,223.8 	"/>
</g>
<g id="freshA60" class="st0">
	<polygon class="st33" points="563.3,209.6 562.1,214.4 373.2,214.4 379.1,297 564.8,296.6 566.1,290.8 	"/>
	<polygon class="st34" points="560.9,134.9 415.5,134.9 373.2,214.4 562.1,214.4 563.3,209.6 	"/>
</g>
<g id="freshA70" class="st0">
	<polygon class="st33" points="564.1,197.5 560.9,202 372.1,202 379.3,297.5 564.9,296.3 566.3,291.9 	"/>
	<polygon class="st34" points="561.6,122.2 415.7,122.2 372.1,202 560.9,202 564.1,197.5 	"/>
</g>
<g id="freshA80" class="st0">
	<polygon class="st33" points="562.8,182.3 559.7,186.7 370.8,186.7 379.1,297.2 565.2,296.7 566.4,287.1 	"/>
	<polygon class="st34" points="560.4,108.9 414.4,108.9 370.8,186.7 559.7,186.7 562.8,182.3 	"/>
</g>
<g id="freshA90" class="st0">
	<polygon class="st33" points="561.4,162.3 560.8,166.7 369.4,166.7 379.3,297.3 565,296.7 566.5,288.1 	"/>
	<polygon class="st34" points="560.4,88.9 414.1,88.9 369.4,166.7 560.8,166.7 561.4,162.3 	"/>
</g>
<g id="freshA100" class="st0">
	<polygon class="st33" points="561.4,140.9 560.7,145.1 367.5,145.1 378.6,297.2 565,296.6 566.5,262 	"/>
	<polygon class="st34" points="566.7,70.3 412.7,70.3 367.5,145.1 560.7,145.1 561.4,140.9 560.6,89.9 	"/>
</g>
<g id="freshB10" class="st0">
	<polygon class="st34" points="305,198.1 247.3,285.5 59.9,285.3 140.3,198.7 	"/>
	<polygon class="st33" points="305,198.1 247.3,285.5 59.9,285.3 62.1,297.5 248.6,297.7 306.1,209 	"/>
</g>
<g id="freshB20" class="st0">
	<polygon class="st34" points="304.3,185.7 246.5,271.8 58.9,271.6 139.3,186.3 	"/>
	<polygon class="st33" points="304.3,185.7 246.5,271.8 58.9,271.6 62.1,297.1 248.6,297.2 306.1,208.6 	"/>
</g>
<g id="freshB30" class="st0">
	<polygon class="st34" points="302.7,173.2 244.8,256.8 56.8,256.7 138.4,173.8 	"/>
	<polygon class="st33" points="302.7,173.2 244.8,256.8 56.8,256.7 62.1,297.1 248.6,297.2 306.1,208.6 	"/>
</g>
<g id="freshB40" class="st0">
	<polygon class="st34" points="302.7,160.3 243.8,242.7 55.7,242.5 137.3,160.9 	"/>
	<polygon class="st33" points="302.7,160.3 243.8,242.7 55.7,242.5 62.1,297.1 248.6,297.2 306.1,208.6 	"/>
</g>
<g id="freshB50" class="st0">
	<polygon class="st34" points="297.2,148.1 135.6,148.6 54,228.6 242.3,228.7 297.2,152.4 	"/>
	<polygon class="st33" points="297.2,156.4 297.2,152.4 242.3,228.7 54,228.6 62.1,297.1 248.6,297.2 306.1,208.6 301.1,156.4 	"/>
</g>
<g id="freshB60" class="st0">
	<polygon class="st34" points="299.5,134.9 241.5,213.6 52.9,213.4 133.8,135.5 	"/>
	<polygon class="st33" points="297.2,156.4 297.2,147.7 300.3,143.6 299.5,134.9 241.5,213.6 52.9,213.4 62.1,297.1 248.6,297.2 
		306.1,208.6 301.4,156.4 	"/>
</g>
<g id="freshB70" class="st0">
	<polygon class="st33" points="297.2,156.4 297.2,147.7 301,142.6 299.4,122 241,199.1 51.5,198.9 62.1,297.1 248.6,297.2 
		306.1,208.6 302.1,156.4 	"/>
	<path class="st34" d="M251,122.2L251,122.2c0,1.8-1.7,5.7-4.6,5.7c-2.9,0-3.4,0-3.4,0v-4.7c0,0,2.2,0,2.7,0c0.2,0,0.5-0.4,0.7-1
		l-113.7,0.4L51.4,199l189.6,0.1l58.4-77.1L251,122.2z"/>
</g>
<g id="freshB80" class="st0">
	<polygon class="st33" points="297.2,156.4 297.2,147.7 300.6,143.2 297.2,103.2 238.6,177.9 48.1,177.8 62.1,297.1 248.6,297.2 
		306.1,208.6 301.7,156.4 	"/>
	<path class="st34" d="M249.4,103.3c0.1,4.2,0.3,8.7,0.5,11c0.2,4,0.4,6.6,0.4,6.6s0.8-0.4,0.8,1.3s-1.7,5.6-4.6,5.6
		c-2.9,0-3.4,0-3.4,0v-4.7c0,0,2.2,0,2.7,0s1.1-2,1.1-3.8s-1.1-13.3-1.3-15.9v-0.1l-115.9,0.4L48,177.8l190.5,0.1l58.7-74.8
		L249.4,103.3z"/>
</g>
<g id="freshB90" class="st0">
	<polygon class="st33" points="297.2,156.4 297.2,147.7 300.6,143.2 295.7,85.8 236,155.6 44.7,155.4 62.1,297.1 248.6,297.2 
		306.1,208.6 301.7,156.4 	"/>
	<path class="st34" d="M251.2,86c-1,2.6-1.8,6.4-1.9,9.4c-0.2,4.3,0.3,15,0.5,18.9c0.2,4,0.4,6.6,0.4,6.6s0.8-0.4,0.8,1.3
		s-1.7,5.6-4.6,5.6c-2.9,0-3.4,0-3.4,0v-4.7c0,0,2.2,0,2.7,0s1.1-2,1.1-3.8s-1.1-13.3-1.3-15.9c-0.1-2.2-0.2-11.6,1.7-17.5L129,86.3
		l-84.4,69.1l191.3,0.1l59.7-69.7L251.2,86z"/>
</g>
<g id="freshB100" class="st0">
	<g class="st14">
		<path class="st35" d="M295.1,73.8h-8.2l0.2,4h0.7c0,0,0.3,6.6-4.3,6.6h-3v-4.5c0,0,1.1,0,1.9,0c0.7,0,1.7-0.8,1.7-2.2
			c0-0.7,0-2.3,0-3.8l-23,0.1c-3.1,3.5-7.5,8.6-8.5,9.6c-1.4,1.6-3.1,7.5-3.2,11.8c-0.2,4.3,0.3,15,0.5,18.9c0.2,4,0.4,6.6,0.4,6.6
			s0.8-0.4,0.8,1.3c0,0.7-0.2,1.6-0.7,2.5L295.1,73.8z"/>
		<path class="st35" d="M246.4,127.8c-2.9,0-3.4,0-3.4,0v-4.7c0,0,2.2,0,2.7,0s1.1-2,1.1-3.8s-1.1-13.3-1.3-15.9s-0.3-15.2,2.9-20.2
			c1.5-2.3,4.4-6,7.1-9.3l-127.8,0.4l-86,68.8l192.3,0.1l13.9-15.8C247.5,127.7,247,127.8,246.4,127.8z"/>
	</g>
	<path class="st33" d="M297.2,156.4v-8.7l3.5-4.7l-5.6-69.2l-44.7,50.9c-0.5,1.1-1.3,2.2-2.4,2.7l-13.9,15.8l-192.3-0.1L62.1,297
		l186.6,0.2l57.4-88.6l-4.3-52.2L297.2,156.4L297.2,156.4z"/>
</g>
<g id="filterBg">
	<rect x="867.4" y="46.6" class="st36" width="118.3" height="47.9"/>
</g>
<g id="filterLabel">
	<text transform="matrix(1 0 0 1 908.2389 65.7736)" class="st37 st38 st39">Filter</text>
</g>
<g id="filterValue">
	<text transform="matrix(1 0 0 1 883.3795 85.021)" class="st37 st38 st40">59.30 gal</text>
</g>
<g id="ClarifierBg">
	<rect x="993.4" y="17.9" class="st36" width="85.4" height="20.4"/>
</g>
<g id="ClarifierLabel">
	<text transform="matrix(1 0 0 1 1007.3381 33.8726)" class="st37 st38 st39">Clarifier</text>
</g>
<g id="BioreactorBg">
	<rect x="1174.2" y="17.9" class="st36" width="85.4" height="20.4"/>
</g>
<g id="BioreactorLabel">
	<text transform="matrix(1 0 0 1 1178.2183 33.8726)" class="st37 st38 st39">Bioreactor</text>
</g>
<g id="InfluentBg">
	<rect x="1398.1" y="60.6" class="st36" width="119.9" height="49.7"/>
</g>
<g id="InfluentLabel">
	<text transform="matrix(1 0 0 1 1403.8345 76.8726)" class="st37 st38 st39">Influent</text>
</g>
<g id="InfluentValue">
	<text transform="matrix(1 0 0 1 1404.9385 100.8725)" class="st37 st38 st40">283.49 gal</text>
</g>
<g id="UVLightBg">
	<rect x="800.3" y="133.5" class="st36" width="79.9" height="24"/>
</g>
<g id="UVLightLabel">
	<text transform="matrix(1 0 0 1 808.8359 150.8725)" class="st37 st38 st39">UV Light</text>
</g>
<g id="ChlorinatorBg">
	<rect x="793.1" y="184.1" class="st36" width="94.2" height="24"/>
</g>
<g id="ChlorinatorLabel">
	<text transform="matrix(1 0 0 1 799.0759 200.8725)" class="st37 st38 st39">Chlorinator</text>
</g>
<g id="TransferBg">
	<rect x="692.3" y="46.6" class="st36" width="118.3" height="47.9"/>
</g>
<g id="TransferLabel">
	<text transform="matrix(1 0 0 1 719.9946 65.7737)" class="st37 st38 st39">Transfer</text>
</g>
<g id="TransferValue">
	<text transform="matrix(1 0 0 1 699.901 85.0211)" class="st37 st38 st40">403.49 gal</text>
</g>
<g id="WashwaterBg">
	<rect x="586.8" y="94.5" class="st36" width="107.7" height="24"/>
</g>
<g id="WashwaterLabel">
	<text transform="matrix(1 0 0 1 596.5278 112.12)" class="st37 st38 st39">Wash water</text>
</g>
<g id="FreshwaterBg">
	<rect x="285.6" y="-6.4" class="st36" width="127.2" height="47.9"/>
</g>
<g id="FreshwaterLabel">
	<text transform="matrix(1 0 0 1 305.6049 13.8726)" class="st37 st38 st39">Fresh water</text>
</g>
<g id="FreshwaterValue">
	<text transform="matrix(1 0 0 1 295.4528 33.8726)" class="st37 st38 st40">1205.00 gal</text>
</g>
</svg>
