<svg xmlns="http://www.w3.org/2000/svg" width="37.571" height="35.223" viewBox="0 0 37.571 35.223">
  <g id="Group_3596" data-name="Group 3596" transform="translate(0 -16)">
    <g id="Group_2925" data-name="Group 2925" transform="translate(23.188 33.611)">
      <g id="Group_2924" data-name="Group 2924">
        <path id="Path_3821" data-name="Path 3821" d="M316.734,256a.734.734,0,1,0,.734.734A.734.734,0,0,0,316.734,256Z" transform="translate(-316 -256)" fill="#d2d0cf"/>
      </g>
    </g>
    <g id="Group_2927" data-name="Group 2927" transform="translate(4.843 27.741)">
      <g id="Group_2926" data-name="Group 2926" transform="translate(0 0)">
        <path id="Path_3822" data-name="Path 3822" d="M91.683,193.611h-.877l-2.389-13.394A5.135,5.135,0,0,0,83.363,176H76.521a5.134,5.134,0,0,0-5.054,4.22l-2.389,13.391H68.2a2.2,2.2,0,0,0-2.2,2.2v2.935a.734.734,0,0,0,.734.734H93.151a.734.734,0,0,0,.734-.734v-2.935A2.2,2.2,0,0,0,91.683,193.611ZM72.912,180.48a3.667,3.667,0,0,1,3.61-3.013h6.842a3.667,3.667,0,0,1,3.61,3.01l2.343,13.133H70.569Zm19.505,17.534H67.468v-2.2a.735.735,0,0,1,.734-.734H91.683a.735.735,0,0,1,.734.734Z" transform="translate(-66 -176)" fill="#d2d0cf"/>
      </g>
    </g>
    <g id="Group_2929" data-name="Group 2929" transform="translate(23.756 36.491)">
      <g id="Group_2928" data-name="Group 2928">
        <path id="Path_3823" data-name="Path 3823" d="M326.261,301.775l-1.077-5.926a.734.734,0,1,0-1.444.262l1.076,5.926a.734.734,0,0,0,1.444-.262Z" transform="translate(-323.728 -295.247)" fill="#d2d0cf"/>
      </g>
    </g>
    <g id="Group_2931" data-name="Group 2931" transform="translate(29.793 33.611)">
      <g id="Group_2930" data-name="Group 2930">
        <path id="Path_3824" data-name="Path 3824" d="M413.045,256h-6.311a.734.734,0,1,0,0,1.468h6.311a.734.734,0,1,0,0-1.468Z" transform="translate(-406 -256)" fill="#d2d0cf"/>
      </g>
    </g>
    <g id="Group_2933" data-name="Group 2933" transform="translate(0 33.611)">
      <g id="Group_2932" data-name="Group 2932">
        <path id="Path_3825" data-name="Path 3825" d="M7.045,256H.734a.734.734,0,0,0,0,1.468H7.045a.734.734,0,1,0,0-1.468Z" transform="translate(0 -256)" fill="#d2d0cf"/>
      </g>
    </g>
    <g id="Group_2935" data-name="Group 2935" transform="translate(26.354 21.158)">
      <g id="Group_2934" data-name="Group 2934">
        <path id="Path_3826" data-name="Path 3826" d="M364.543,86.506a.734.734,0,0,0-1.038,0l-4.151,4.151a.734.734,0,0,0,1.038,1.038l4.151-4.151A.734.734,0,0,0,364.543,86.506Z" transform="translate(-359.139 -86.291)" fill="#d2d0cf"/>
      </g>
    </g>
    <g id="Group_2937" data-name="Group 2937" transform="translate(5.598 21.158)">
      <g id="Group_2936" data-name="Group 2936">
        <path id="Path_3827" data-name="Path 3827" d="M81.694,90.657l-4.151-4.151a.734.734,0,0,0-1.038,1.038l4.151,4.151a.734.734,0,0,0,1.038-1.038Z" transform="translate(-76.29 -86.291)" fill="#d2d0cf"/>
      </g>
    </g>
    <g id="Group_2939" data-name="Group 2939" transform="translate(18.052 16)">
      <g id="Group_2938" data-name="Group 2938" transform="translate(0 0)">
        <path id="Path_3828" data-name="Path 3828" d="M246.734,16a.734.734,0,0,0-.734.734V22.6a.734.734,0,1,0,1.468,0v-5.87A.734.734,0,0,0,246.734,16Z" transform="translate(-246 -16)" fill="#d2d0cf"/>
      </g>
    </g>
  </g>
</svg>
