<svg xmlns="http://www.w3.org/2000/svg" width="25.359" height="35.223" viewBox="0 0 25.359 35.223">
  <g id="Group_3351" data-name="Group 3351" transform="translate(-74.296 -1728.953)">
    <g id="Group_3348" data-name="Group 3348" transform="translate(74.296 1728.953)">
      <g id="Group_3347" data-name="Group 3347">
        <path id="Path_4015" data-name="Path 4015" d="M90.229,1732.837c-.813-1.2-1.531-2.3-2.2-3.3a1.454,1.454,0,0,0-.383-.383,1.247,1.247,0,0,0-1.722.383c-.622,1-1.34,2.057-2.2,3.3-3.78,5.55-9.426,13.923-9.426,18.708a12.623,12.623,0,0,0,3.732,8.947,12.783,12.783,0,0,0,8.947,3.684A12.743,12.743,0,0,0,99.655,1751.5C99.655,1746.712,94.009,1738.387,90.229,1732.837Zm3.971,25.885a10.12,10.12,0,0,1-7.225,2.966,10.321,10.321,0,0,1-7.225-2.966,10.12,10.12,0,0,1-2.966-7.225c0-4.019,5.407-12.01,9-17.321.431-.622.813-1.244,1.2-1.77.383.526.766,1.148,1.2,1.77,3.589,5.359,9,13.3,9,17.321A10.321,10.321,0,0,1,94.2,1758.722Z" transform="translate(-74.296 -1728.953)" fill="#d2d0cf"/>
      </g>
    </g>
    <g id="Group_3350" data-name="Group 3350" transform="translate(89.358 1750.632)">
      <g id="Group_3349" data-name="Group 3349">
        <path id="Path_4016" data-name="Path 4016" d="M205.25,1910.2a1.227,1.227,0,0,0-1.292,1.148,6.159,6.159,0,0,1-.909,2.919,5.815,5.815,0,0,1-2.2,2.105,1.264,1.264,0,0,0,1.244,2.2,8.29,8.29,0,0,0,3.062-2.966,8.142,8.142,0,0,0,1.244-4.115A1.227,1.227,0,0,0,205.25,1910.2Z" transform="translate(-200.216 -1910.193)" fill="#d2d0cf"/>
      </g>
    </g>
  </g>
</svg>
