<?xml version="1.0" encoding="utf-8"?>
<svg viewBox="424.156 240.753 30.379 16.167" xmlns="http://www.w3.org/2000/svg">
  <g id="rssi1" transform="matrix(1, 0, 0, 1, 424.185883, 243.049973)">
    <path id="Rectangle_4200_1_" class="rssiBars" d="M3.2,5.4L3.2,5.4c1.4,0,2.6,1.2,2.6,2.6v2.6c0,1.4-1.2,2.6-2.6,2.6h0 c-1.4,0-2.6-1.2-2.6-2.6V8C0.6,6.5,1.8,5.4,3.2,5.4z" style="fill: rgb(21, 190, 119); stroke: rgb(21, 190, 119);"/>
  </g>
  <g id="rssi2" transform="matrix(1, 0, 0, 1, 424.158173, 243.049973)">
    <path id="Rectangle_4199_1_" class="rssiBars" d="M10.9,2.8L10.9,2.8c1.4,0,2.6,1.2,2.6,2.6v5.2c0,1.4-1.2,2.6-2.6,2.6h0 c-1.4,0-2.6-1.2-2.6-2.6V5.4C8.4,4,9.5,2.8,10.9,2.8z" style="fill: rgb(21, 190, 119); stroke: rgb(21, 190, 119);"/>
  </g>
  <g id="rssi3" transform="matrix(1, 0, 0, 1, 424.10907, 243.149979)">
    <path id="Rectangle_4199_2_" class="rssiBars" d="M18.9,0.7L18.9,0.7c1.4,0,2.6,1.4,2.6,3.1V10c0,1.7-1.2,3.1-2.6,3.1h0 c-1.4,0-2.6-1.4-2.6-3.1V3.8C16.4,2.1,17.5,0.7,18.9,0.7z" style="fill: rgb(21, 190, 119); stroke: rgb(21, 190, 119);"/>
  </g>
  <g id="rssi4" transform="matrix(1.075934, 0, 0, 1.196552, 430.712799, 240.57515)" style="">
    <path id="path-1" class="rssiBars" d="M18.9,0.7L18.9,0.7c1.4,0,2.6,1.4,2.6,3.1V10c0,1.7-1.2,3.1-2.6,3.1h0 c-1.4,0-2.6-1.4-2.6-3.1V3.8C16.4,2.1,17.5,0.7,18.9,0.7z" style="fill: rgb(21, 190, 119); stroke: rgb(21, 190, 119);"/>
  </g>
</svg>