<svg xmlns="http://www.w3.org/2000/svg" width="31.163" height="24.382" viewBox="0 0 31.163 24.382">
  <path id="Path_2671" data-name="Path 2671" d="M133.059,251.844l-21.117-5.172-.7-.171v-2.369a.438.438,0,1,0-.876,0v2.427l-.545.242-5.425,2.411-.019.008-.02.008-2.128.832v11.6l.876.366v-.042l1.291.574,5.425,2.411.545.242v2.428a.438.438,0,0,0,.876,0V265.27l.7-.171,21.117-5.171a.437.437,0,0,0,.334-.426v-7.233A.436.436,0,0,0,133.059,251.844Zm-22.692-2.913v15.321l-1.291-.574-5.425-2.411-.545-.242v-10.28l.545-.242,5.425-2.411,1.291-.574Zm5.424.306v14.017l-.7.171-2.712.664-1.137.278V247.4l1.137.278,2.712.664.7.171Zm5.425,1.329v11.36l-.7.171-2.712.664-1.136.278V248.732l1.137.278,2.712.664.7.171Zm5.425,1.328v8.7l-.7.171-2.712.664-1.137.278V250.06l1.137.278,2.712.664.7.171Zm5.877,1.439v5.825l-.7.171-3.165.775-1.137.278v-8.995l1.137.278,3.165.775.7.171Z" transform="translate(-102.23 -243.695)" fill="#010101"/>
</svg>
