<?xml version="1.0" encoding="utf-8"?>
<!-- Generator: Adobe Illustrator 24.3.0, SVG Export Plug-In . SVG Version: 6.00 Build 0)  -->
<svg version="1.1" id="Layer_1" xmlns="http://www.w3.org/2000/svg" xmlns:xlink="http://www.w3.org/1999/xlink" x="0px" y="0px"
	 viewBox="0 0 231.5 320.7" style="enable-background:new 0 0 231.5 320.7;" xml:space="preserve">
<g id="tb1ABg">
	<rect x="13" y="157" class="st0" width="209" height="155"/>
	<rect x="13.5" y="157.8" class="st1" width="208" height="153.3"/>
	<rect id="Rectangle_3846" x="13" y="157" class="st2" width="209" height="154"/>
</g>
<g id="tb1ANameValueText">
	<text transform="matrix(1 0 0 1 23 177)" class="st3 st4">TB-05A</text>
</g>
<g id="tb1ANameLabelText">
	<text transform="matrix(1 0 0 1 23 191)" class="st5 st6">Tapbox</text>
</g>
<g id="connectionLines">
	<line id="Line_939" class="st7" x1="117.5" y1="107.5" x2="117.5" y2="204"/>
</g>
<g id="bwABg">
	<rect x="13" y="14" class="st0" width="209" height="93"/>
	<rect x="13.5" y="14.5" class="st1" width="208" height="92"/>
	<rect id="Rectangle_3838" x="13" y="14" class="st2" width="209" height="40"/>
</g>
<g id="bwANameValueText">
	<text transform="matrix(1 0 0 1 23 34)" class="st3 st4">BW-01-01A</text>
</g>
<g id="bwANameLabelText">
	<text transform="matrix(1 0 0 1 23 48)" class="st5 st6">Busway</text>
</g>
<g id="bwALoadSquare">
	<rect id="Rectangle_3847" x="192" y="24" class="st8" width="20" height="20"/>
</g>
<g id="bwAkWTotalLabelText">
	<text transform="matrix(1 0 0 1 23 93)" class="st5 st9">kW Total</text>
</g>
<g id="bwAkWTotalValueText">
	<text transform="matrix(1 0 0 1 23 79)" class="st3 st10">10.25 kW</text>
</g>
<g id="bwALoadLabelText">
	<text transform="matrix(1 0 0 1 119 93)" class="st5 st9">Load</text>
</g>
<g id="bwALoadValueText">
	<text transform="matrix(1 0 0 1 119 79)" class="st3 st10">87.98 %</text>
</g>
<g id="cb1ABg">
	<rect x="30" y="203" class="st0" width="175" height="93"/>
	<rect x="30.4" y="203.5" class="st1" width="174.2" height="92"/>
</g>
<g id="cb1ANameValueText">
	<text transform="matrix(1 0 0 1 41 223)" class="st3 st4">CB-02</text>
</g>
<g id="cb1ANameLabelText">
	<text transform="matrix(1 0 0 1 41 237)" class="st5 st6">Circuit breaker</text>
</g>
<g id="cb1AkWTotalLabelText">
	<text transform="matrix(1 0 0 1 42 285)" class="st5 st9">kW Total</text>
</g>
<g id="cb1AkWTotalValueText">
	<text transform="matrix(1 0 0 1 41 271)" class="st3 st10">10.25 kW</text>
</g>
<g id="cb1ALoadLabelText">
	<text transform="matrix(1 0 0 1 120.0601 285)" class="st5 st9">Load</text>
</g>
<g id="cb1ALoadValueText">
	<text transform="matrix(1 0 0 1 119.0601 271)" class="st3 st10">87.98 %</text>
</g>
<g id="cb1ALoadSquare">
	<rect id="Rectangle_3848_4_" x="175" y="214" class="st8" width="20" height="20"/>
</g>
</svg>
