<?xml version="1.0" encoding="utf-8"?>
<!-- Generator: Adobe Illustrator 24.3.0, SVG Export Plug-In . SVG Version: 6.00 Build 0)  -->
<svg version="1.1" id="Layer_1" xmlns="http://www.w3.org/2000/svg" xmlns:xlink="http://www.w3.org/1999/xlink" x="0px" y="0px"
	 viewBox="0 0 466.1 465.9" style="enable-background:new 0 0 466.1 465.9;" xml:space="preserve">
<g id="tb1BBg">
	<rect x="247" y="157" class="st0" width="209" height="155"/>
	<rect x="247.5" y="157.8" class="st1" width="208" height="153.3"/>
	<rect id="Rectangle_3846_3_" x="247" y="157" class="st2" width="209" height="154"/>
</g>
<g id="tb1BNameValueText">
	<text transform="matrix(1 0 0 1 257 177)" class="st3 st4">TB-05B</text>
</g>
<g id="tb1BNameLabelText">
	<text transform="matrix(1 0 0 1 257 191)" class="st5 st6">Tapbox</text>
</g>
<g id="tb1ABg">
	<rect x="13" y="157" class="st0" width="209" height="155"/>
	<rect x="13.5" y="157.8" class="st1" width="208" height="153.3"/>
	<rect id="Rectangle_3846" x="13" y="157" class="st2" width="209" height="154"/>
</g>
<g id="tb1ANameValueText">
	<text transform="matrix(1 0 0 1 23 177)" class="st3 st4">TB-05A</text>
</g>
<g id="tb1ANameLabelText">
	<text transform="matrix(1 0 0 1 23 191)" class="st5 st6">Tapbox</text>
</g>
<g id="connectionLines">
	<line id="Line_939" class="st7" x1="117.5" y1="107.5" x2="117.5" y2="204"/>
	<line id="Line_949" class="st7" x1="117.5" y1="295" x2="117.5" y2="361"/>
	<line id="Line_951" class="st7" x1="351.5" y1="295" x2="351.5" y2="361.5"/>
	<line id="Line_944" class="st7" x1="351.5" y1="107.5" x2="351.5" y2="204"/>
</g>
<g id="bwABg">
	<rect x="13" y="14" class="st0" width="209" height="93"/>
	<rect x="13.5" y="14.5" class="st1" width="208" height="92"/>
	<rect id="Rectangle_3838" x="13" y="14" class="st2" width="209" height="40"/>
</g>
<g id="bwANameValueText">
	<text transform="matrix(1 0 0 1 23 34)" class="st3 st4">BW-01-01A</text>
</g>
<g id="bwANameLabelText">
	<text transform="matrix(1 0 0 1 23 48)" class="st5 st6">Busway</text>
</g>
<g id="bwALoadSquare">
	<rect id="Rectangle_3847" x="192" y="24" class="st8" width="20" height="20"/>
</g>
<g id="bwAkWTotalLabelText">
	<text transform="matrix(1 0 0 1 23 93)" class="st5 st9">kW Total</text>
</g>
<g id="bwAkWTotalValueText">
	<text transform="matrix(1 0 0 1 23 79)" class="st3 st10">10.25 kW</text>
</g>
<g id="bwALoadLabelText">
	<text transform="matrix(1 0 0 1 119 93)" class="st5 st9">Load</text>
</g>
<g id="bwALoadValueText">
	<text transform="matrix(1 0 0 1 119 79)" class="st3 st10">87.98 %</text>
</g>
<g id="bwBBg">
	<rect x="247" y="14" class="st0" width="209" height="93"/>
	<rect x="247.5" y="14.5" class="st1" width="208" height="92"/>
	<rect id="Rectangle_3838_1_" x="247" y="14" class="st2" width="209" height="40"/>
</g>
<g id="bwBNameValueText">
	<text transform="matrix(1 0 0 1 257 34)" class="st3 st4">BW-01-01B</text>
</g>
<g id="bwBNameLabelText">
	<text transform="matrix(1 0 0 1 257 48)" class="st5 st6">Busway</text>
</g>
<g id="bwBLoadSquare">
	<rect id="Rectangle_3847_1_" x="426" y="24" class="st8" width="20" height="20"/>
</g>
<g id="bwBkWTotalLabelText">
	<text transform="matrix(1 0 0 1 257 93)" class="st5 st9">kW Total</text>
</g>
<g id="bwBkWTotalValueText">
	<text transform="matrix(1 0 0 1 257 79)" class="st3 st10">10.25 kW</text>
</g>
<g id="bwBLoadLabelText">
	<text transform="matrix(1 0 0 1 353 93)" class="st5 st9">Load</text>
</g>
<g id="bwBLoadValueText">
	<text transform="matrix(1 0 0 1 353 79)" class="st3 st10">87.98 %</text>
</g>
<g id="cb1ABg">
	<rect x="30" y="203" class="st0" width="175" height="93"/>
	<rect x="30.4" y="203.5" class="st1" width="174.2" height="92"/>
</g>
<g id="cb1ANameValueText">
	<text transform="matrix(1 0 0 1 41 223)" class="st3 st4">CB-02</text>
</g>
<g id="cb1ANameLabelText">
	<text transform="matrix(1 0 0 1 41 237)" class="st5 st6">Circuit breaker</text>
</g>
<g id="cb1AkWTotalLabelText">
	<text transform="matrix(1 0 0 1 42 285)" class="st5 st9">kW Total</text>
</g>
<g id="cb1AkWTotalValueText">
	<text transform="matrix(1 0 0 1 41 271)" class="st3 st10">10.25 kW</text>
</g>
<g id="cb1ALoadLabelText">
	<text transform="matrix(1 0 0 1 121 285)" class="st5 st9">Load</text>
</g>
<g id="cb1ALoadValueText">
	<text transform="matrix(1 0 0 1 120 271)" class="st3 st10">87.98 %</text>
</g>
<g id="cb1ALoadSquare">
	<rect id="Rectangle_3848_4_" x="175" y="214" class="st8" width="20" height="20"/>
</g>
<g id="cb1BBg">
	<rect x="264" y="203" class="st0" width="175" height="93"/>
	<rect x="264.4" y="203.5" class="st1" width="174.2" height="92"/>
</g>
<g id="cb1BNameValueText">
	<text transform="matrix(1 0 0 1 275 223)" class="st3 st4">CB-02</text>
</g>
<g id="cb1BNameLabelText">
	<text transform="matrix(1 0 0 1 275 237)" class="st5 st6">Circuit breaker</text>
</g>
<g id="cb1BkWTotalLabelText">
	<text transform="matrix(1 0 0 1 276 285)" class="st5 st9">kW Total</text>
</g>
<g id="cb1BkWTotalValueText">
	<text transform="matrix(1 0 0 1 275 271)" class="st3 st10">10.25 kW</text>
</g>
<g id="cb1BLoadLabelText">
	<text transform="matrix(1 0 0 1 355 285)" class="st5 st9">Load</text>
</g>
<g id="cb1BLoadValueText">
	<text transform="matrix(1 0 0 1 354 271)" class="st3 st10">87.98 %</text>
</g>
<g id="cb1BLoadSquare">
	<rect id="Rectangle_3848_3_" x="408" y="214" class="st8" width="20" height="20"/>
</g>
<g id="rackBg">
	<rect x="13" y="361" class="st0" width="443" height="93"/>
	<rect x="13.2" y="361.5" class="st1" width="442.5" height="92"/>
	<rect id="Rectangle_3873" x="13" y="361" class="st2" width="443" height="40"/>
</g>
<g id="rackNameValueText">
	<text transform="matrix(1 0 0 1 23 381.96)" class="st3 st4">01-04</text>
</g>
<g id="rackNameLabelText">
	<text transform="matrix(1 0 0 1 23 394.811)" class="st5 st6">Rack</text>
</g>
<g id="rackkWTotalLabelText">
	<text transform="matrix(1 0 0 1 24 440.96)" class="st5 st9">kW Total</text>
</g>
<g id="rackkWTotalValueText">
	<text transform="matrix(1 0 0 1 23 426.96)" class="st3 st10">10.25 kW</text>
</g>
<g id="rackLoadLabelText">
	<text transform="matrix(1 0 0 1 120 440.96)" class="st5 st9">Load</text>
</g>
<g id="rackLoadValueText">
	<text transform="matrix(1 0 0 1 119 426.96)" class="st3 st10">87.98 %</text>
</g>
<g id="cb1BLoadSquare_1_">
	<rect id="Rectangle_3848_1_" x="408" y="371" class="st8" width="20" height="20"/>
</g>
</svg>
