<?xml version="1.0" encoding="utf-8"?>
<!-- Generator: Adobe Illustrator 24.3.0, SVG Export Plug-In . SVG Version: 6.00 Build 0)  -->
<svg version="1.1" id="Layer_1" xmlns="http://www.w3.org/2000/svg" xmlns:xlink="http://www.w3.org/1999/xlink" x="0px" y="0px"
	 viewBox="0 0 918.8 465.9" style="enable-background:new 0 0 918.8 465.9;" xml:space="preserve">
<g id="tb1BBg">
	<rect x="471" y="157" class="st0" width="209" height="155"/>
	<rect x="471.5" y="157.8" class="st1" width="208" height="153.3"/>
	<rect id="Rectangle_3846_3_" x="471" y="157" class="st2" width="209" height="154"/>
</g>
<g id="tb1BNameValueText">
	<text transform="matrix(1 0 0 1 481 177)" class="st3 st4">TB-05B</text>
</g>
<g id="tb1BNameLabelText">
	<text transform="matrix(1 0 0 1 481 191)" class="st5 st6">Tapbox</text>
</g>
<g id="tb2BBg">
	<rect x="700" y="157" class="st0" width="209" height="155"/>
	<rect x="700.5" y="157.8" class="st1" width="208" height="153.3"/>
	<rect id="Rectangle_3846_2_" x="700" y="157" class="st2" width="209" height="154"/>
</g>
<g id="tb2BNameValueText">
	<text transform="matrix(1 0 0 1 710 177)" class="st3 st4">TB-07B</text>
</g>
<g id="tb2BNameLabelText">
	<text transform="matrix(1 0 0 1 710 191)" class="st5 st6">Tapbox</text>
</g>
<g id="tb1ABg">
	<rect x="13" y="157" class="st0" width="209" height="155"/>
	<rect x="13.5" y="157.8" class="st1" width="208" height="153.3"/>
	<rect id="Rectangle_3846" x="13" y="157" class="st2" width="209" height="154"/>
</g>
<g id="tb1ANameValueText">
	<text transform="matrix(1 0 0 1 23 177)" class="st3 st4">TB-05A</text>
</g>
<g id="tb1ANameLabelText">
	<text transform="matrix(1 0 0 1 23 191)" class="st5 st6">Tapbox</text>
</g>
<g id="tb2ABg">
	<rect x="242" y="157" class="st0" width="209" height="155"/>
	<rect x="242.5" y="157.8" class="st1" width="208" height="153.3"/>
	<rect id="Rectangle_3846_1_" x="242" y="157" class="st2" width="209" height="154"/>
</g>
<g id="tb2ANameValueText">
	<text transform="matrix(1 0 0 1 252 177)" class="st3 st4">TB-07A</text>
</g>
<g id="tb2ANameLabelText">
	<text transform="matrix(1 0 0 1 252 191)" class="st5 st6">Tapbox</text>
</g>
<g id="connectionLines">
	<line id="Line_939" class="st7" x1="117.5" y1="107.5" x2="117.5" y2="204"/>
	<line id="Line_949" class="st7" x1="117.5" y1="295" x2="117.5" y2="361"/>
	<line id="Line_949_1_" class="st7" x1="346.5" y1="295" x2="346.5" y2="361"/>
	<line id="Line_951" class="st7" x1="575.5" y1="295" x2="575.5" y2="361.5"/>
	<line id="Line_952" class="st7" x1="804.5" y1="295" x2="804.5" y2="361.5"/>
	<line id="Line_944" class="st7" x1="575.5" y1="107.5" x2="575.5" y2="204"/>
	<line id="Line_941" class="st7" x1="346.5" y1="132.5" x2="346.5" y2="204"/>
	<line id="Line_942" class="st7" x1="804.5" y1="132.5" x2="804.5" y2="204"/>
	<line id="Line_940" class="st7" x1="117.5" y1="132.5" x2="346.5" y2="132.5"/>
	<line id="Line_943" class="st7" x1="575.5" y1="132.5" x2="804.5" y2="132.5"/>
</g>
<g id="bwABg">
	<rect x="13" y="14" class="st0" width="209" height="93"/>
	<rect x="13.5" y="14.5" class="st1" width="208" height="92"/>
	<rect id="Rectangle_3838" x="13" y="14" class="st2" width="209" height="40"/>
</g>
<g id="bwANameValueText">
	<text transform="matrix(1 0 0 1 23 34)" class="st3 st4">BW-01-01A</text>
</g>
<g id="bwANameLabelText">
	<text transform="matrix(1 0 0 1 23 48)" class="st5 st6">Busway</text>
</g>
<g id="bwALoadSquare">
	<rect id="Rectangle_3847" x="192" y="24" class="st8" width="20" height="20"/>
</g>
<g id="bwAkWTotalLabelText">
	<text transform="matrix(1 0 0 1 23 93)" class="st5 st9">kW Total</text>
</g>
<g id="bwAkWTotalValueText">
	<text transform="matrix(1 0 0 1 23 79)" class="st3 st10">10.25 kW</text>
</g>
<g id="bwALoadLabelText">
	<text transform="matrix(1 0 0 1 119 93)" class="st5 st9">Load</text>
</g>
<g id="bwALoadValueText">
	<text transform="matrix(1 0 0 1 119 79)" class="st3 st10">87.98 %</text>
</g>
<g id="bwBBg">
	<rect x="471" y="14" class="st0" width="209" height="93"/>
	<rect x="471.5" y="14.5" class="st1" width="208" height="92"/>
	<rect id="Rectangle_3838_1_" x="471" y="14" class="st2" width="209" height="40"/>
</g>
<g id="bwBNameValueText">
	<text transform="matrix(1 0 0 1 481 34)" class="st3 st4">BW-01-01B</text>
</g>
<g id="bwBNameLabelText">
	<text transform="matrix(1 0 0 1 481 48)" class="st5 st6">Busway</text>
</g>
<g id="bwBLoadSquare">
	<rect id="Rectangle_3847_1_" x="650" y="24" class="st8" width="20" height="20"/>
</g>
<g id="bwBkWTotalLabelText">
	<text transform="matrix(1 0 0 1 481 93)" class="st5 st9">kW Total</text>
</g>
<g id="bwBkWTotalValueText">
	<text transform="matrix(1 0 0 1 481 79)" class="st3 st10">10.25 kW</text>
</g>
<g id="bwBLoadLabelText">
	<text transform="matrix(1 0 0 1 577 93)" class="st5 st9">Load</text>
</g>
<g id="bwBLoadValueText">
	<text transform="matrix(1 0 0 1 577 79)" class="st3 st10">87.98 %</text>
</g>
<g id="cb1ABg">
	<rect x="30" y="203" class="st0" width="175" height="93"/>
	<rect x="30.4" y="203.5" class="st1" width="174.2" height="92"/>
</g>
<g id="cb1ANameValueText">
	<text transform="matrix(1 0 0 1 41 223)" class="st3 st4">CB-02</text>
</g>
<g id="cb1ANameLabelText">
	<text transform="matrix(1 0 0 1 41 237)" class="st5 st6">Circuit breaker</text>
</g>
<g id="cb1AkWTotalLabelText">
	<text transform="matrix(1 0 0 1 42 285)" class="st5 st9">kW Total</text>
</g>
<g id="cb1AkWTotalValueText">
	<text transform="matrix(1 0 0 1 41 271)" class="st3 st10">10.25 kW</text>
</g>
<g id="cb1ALoadLabelText">
	<text transform="matrix(1 0 0 1 121 285)" class="st5 st9">Load</text>
</g>
<g id="cb1ALoadValueText">
	<text transform="matrix(1 0 0 1 120 271)" class="st3 st10">87.98 %</text>
</g>
<g id="cb1ALoadSquare">
	<rect id="Rectangle_3848_4_" x="175" y="214" class="st8" width="20" height="20"/>
</g>
<g id="cb2ABg">
	<rect x="259" y="203" class="st0" width="175" height="93"/>
	<rect x="259.4" y="203.5" class="st1" width="174.2" height="92"/>
</g>
<g id="cb2ANameValueText">
	<text transform="matrix(1 0 0 1 270 223)" class="st3 st4">CB-02</text>
</g>
<g id="cb2ANameLabelText">
	<text transform="matrix(1 0 0 1 270 237)" class="st5 st6">Circuit breaker</text>
</g>
<g id="cb2AkWTotalLabelText">
	<text transform="matrix(1 0 0 1 271 285)" class="st5 st9">kW Total</text>
</g>
<g id="cb2AkWTotalValueText">
	<text transform="matrix(1 0 0 1 270 271)" class="st3 st10">10.25 kW</text>
</g>
<g id="cb2ALoadLabelText">
	<text transform="matrix(1 0 0 1 350 285)" class="st5 st9">Load</text>
</g>
<g id="cb2ALoadValueText">
	<text transform="matrix(1 0 0 1 349 271)" class="st3 st10">87.98 %</text>
</g>
<g id="cb2ALoadSquare">
	<rect id="Rectangle_3848_1_" x="405" y="214" class="st8" width="20" height="20"/>
</g>
<g id="cb1BBg">
	<rect x="488" y="203" class="st0" width="175" height="93"/>
	<rect x="488.4" y="203.5" class="st1" width="174.2" height="92"/>
</g>
<g id="cb1BNameValueText">
	<text transform="matrix(1 0 0 1 499 223)" class="st3 st4">CB-02</text>
</g>
<g id="cb1BNameLabelText">
	<text transform="matrix(1 0 0 1 499 237)" class="st5 st6">Circuit breaker</text>
</g>
<g id="cb1BkWTotalLabelText">
	<text transform="matrix(1 0 0 1 500 285)" class="st5 st9">kW Total</text>
</g>
<g id="cb1BkWTotalValueText">
	<text transform="matrix(1 0 0 1 499 271)" class="st3 st10">10.25 kW</text>
</g>
<g id="cb1BLoadLabelText">
	<text transform="matrix(1 0 0 1 579 285)" class="st5 st9">Load</text>
</g>
<g id="cb1BLoadValueText">
	<text transform="matrix(1 0 0 1 578 271)" class="st3 st10">87.98 %</text>
</g>
<g id="cb1BLoadSquare">
	<rect id="Rectangle_3848_3_" x="632" y="214" class="st8" width="20" height="20"/>
</g>
<g id="cb2BBg">
	<rect x="717" y="203" class="st0" width="175" height="93"/>
	<rect x="717.4" y="203.5" class="st1" width="174.2" height="92"/>
</g>
<g id="cb2BNameValueText">
	<text transform="matrix(1 0 0 1 728 223)" class="st3 st4">CB-02</text>
</g>
<g id="cb2BNameLabelText">
	<text transform="matrix(1 0 0 1 728 237)" class="st5 st6">Circuit breaker</text>
</g>
<g id="cb2BkWTotalLabelText">
	<text transform="matrix(1 0 0 1 729 285)" class="st5 st9">kW Total</text>
</g>
<g id="cb2BkWTotalValueText">
	<text transform="matrix(1 0 0 1 728 271)" class="st3 st10">10.25 kW</text>
</g>
<g id="cb2BLoadLabelText">
	<text transform="matrix(1 0 0 1 808 285)" class="st5 st9">Load</text>
</g>
<g id="cb2BLoadValueText">
	<text transform="matrix(1 0 0 1 807 271)" class="st3 st10">87.98 %</text>
</g>
<g id="cb2BLoadSquare">
	<rect id="Rectangle_3848_2_" x="860" y="214" class="st8" width="20" height="20"/>
</g>
<g id="rackBg">
	<rect x="13" y="361" class="st0" width="896" height="93"/>
	<rect x="13.5" y="361.5" class="st1" width="895" height="92"/>
	<rect id="Rectangle_3873" x="13" y="361" class="st2" width="896" height="40"/>
</g>
<g id="rackNameValueText">
	<text transform="matrix(1 0 0 1 23 381.96)" class="st3 st4">01-04</text>
</g>
<g id="rackNameLabelText">
	<text transform="matrix(1 0 0 1 23 394.811)" class="st5 st6">Rack</text>
</g>
<g id="rackkWTotalLabelText">
	<text transform="matrix(1 0 0 1 24 440.96)" class="st5 st9">kW Total</text>
</g>
<g id="rackkWTotalValueText">
	<text transform="matrix(1 0 0 1 23 426.96)" class="st3 st10">10.25 kW</text>
</g>
<g id="rackLoadLabelText">
	<text transform="matrix(1 0 0 1 120 440.96)" class="st5 st9">Load</text>
</g>
<g id="rackLoadValueText">
	<text transform="matrix(1 0 0 1 119 426.96)" class="st3 st10">87.98 %</text>
</g>
<g id="rackLoadSquare">
	<rect id="Rectangle_3848_5_" x="860" y="372" class="st8" width="20" height="20"/>
</g>
</svg>
