<svg id="Group_2352" data-name="Group 2352" xmlns="http://www.w3.org/2000/svg" width="25.116" height="44.65" viewBox="0 0 25.116 44.65">
  <path id="Path_4087" data-name="Path 4087" d="M112,316.94V330.6l1.92,2.88a1.047,1.047,0,0,0,1.742,0l1.919-2.88V316.94a14.726,14.726,0,0,1-5.581,0Z" transform="translate(-102.233 -289.3)"/>
  <path id="Path_4088" data-name="Path 4088" d="M12.558,0A12.558,12.558,0,1,0,25.116,12.558,12.558,12.558,0,0,0,12.558,0Zm0,6.628a5.936,5.936,0,0,0-5.93,5.93,1.046,1.046,0,0,1-2.093,0,8.033,8.033,0,0,1,8.023-8.023,1.046,1.046,0,0,1,0,2.093Z" transform="translate(0 0)" fill="#a2a2a2"/>
</svg>
